<?xml version="1.0" encoding="UTF-8" standalone="no"?>
<!DOCTYPE svg PUBLIC "-//W3C//DTD SVG 1.1//EN"
 "http://www.w3.org/Graphics/SVG/1.1/DTD/svg11.dtd">
<!-- Generated by graphviz version 14.0.1 (20251006.0113)
 -->
<!-- Title: gocallvis Pages: 1 -->
<svg width="1361pt" height="395pt"
 viewBox="0.00 0.00 1361.00 395.00" xmlns="http://www.w3.org/2000/svg" xmlns:xlink="http://www.w3.org/1999/xlink">
<g id="graph0" class="graph" transform="scale(1 1) rotate(0) translate(0 395)">
<title>gocallvis</title>
<polygon fill="lightgray" stroke="none" points="0,0 0,-395 1360.7,-395 1360.7,0 0,0"/>
<g id="clust1" class="cluster">
<title>cluster_focus</title>
<polygon fill="#e6ecfa" stroke="black" stroke-width="0.5" points="8,-8 8,-387 1352.7,-387 1352.7,-8 8,-8"/>
<text xml:space="preserve" text-anchor="middle" x="680.35" y="-365.9" font-family="Arial" font-size="18.00">api</text>
</g>
<g id="clust2" class="cluster">
<title>cluster_github.com/LederWorks/siros/backend/cmd/siros&#45;server</title>
<g id="a_clust2"><a xlink:href="/?f=github.com/LederWorks/siros/backend/cmd/siros-server" xlink:title="package: github.com/LederWorks/siros/backend/cmd/siros&#45;server">
<polygon fill="lightyellow" stroke="black" stroke-width="0.8" points="16,-107 16,-259 187.79,-259 187.79,-107 16,-107"/>
<text xml:space="preserve" text-anchor="middle" x="101.89" y="-239.8" font-family="Tahoma bold" font-size="16.00">main</text>
</a>
</g>
</g>
<g id="clust3" class="cluster">
<title>cluster_github.com/LederWorks/siros/backend/internal/api/middleware</title>
<g id="a_clust3"><a xlink:href="/?f=github.com/LederWorks/siros/backend/internal/api/middleware" xlink:title="package: github.com/LederWorks/siros/backend/internal/api/middleware">
<polygon fill="lightyellow" stroke="black" stroke-width="0.8" points="558.45,-198 558.45,-350 708.49,-350 708.49,-198 558.45,-198"/>
<text xml:space="preserve" text-anchor="middle" x="633.47" y="-330.8" font-family="Tahoma bold" font-size="16.00">middleware</text>
</a>
</g>
</g>
<g id="clust4" class="cluster">
<title>cluster_github.com/LederWorks/siros/backend/internal/api/routes</title>
<g id="a_clust4"><a xlink:href="/?f=github.com/LederWorks/siros/backend/internal/api/routes" xlink:title="package: github.com/LederWorks/siros/backend/internal/api/routes">
<polygon fill="lightyellow" stroke="black" stroke-width="0.8" points="865.49,-80 865.49,-160 1017.78,-160 1017.78,-80 865.49,-80"/>
<text xml:space="preserve" text-anchor="middle" x="941.64" y="-140.8" font-family="Tahoma bold" font-size="16.00">routes</text>
</a>
</g>
</g>
<g id="clust5" class="cluster">
<title>cluster_github.com/LederWorks/siros/backend/internal/controllers</title>
<g id="a_clust5"><a xlink:href="/?f=github.com/LederWorks/siros/backend/internal/controllers" xlink:title="package: github.com/LederWorks/siros/backend/internal/controllers">
<polygon fill="lightyellow" stroke="black" stroke-width="0.8" points="561.08,-80 561.08,-160 705.87,-160 705.87,-80 561.08,-80"/>
<text xml:space="preserve" text-anchor="middle" x="633.47" y="-140.8" font-family="Tahoma bold" font-size="16.00">controllers</text>
</a>
</g>
</g>
<g id="clust6" class="cluster">
<title>cluster_github.com/gorilla/mux</title>
<g id="a_clust6"><a xlink:href="/?f=github.com/gorilla/mux" xlink:title="package: github.com/gorilla/mux">
<polygon fill="lightyellow" stroke="black" stroke-width="0.8" points="1150.41,-16 1150.41,-312 1344.7,-312 1344.7,-16 1150.41,-16"/>
<text xml:space="preserve" text-anchor="middle" x="1247.55" y="-292.8" font-family="Tahoma bold" font-size="16.00">mux</text>
</a>
</g>
</g>
<!-- github.com/LederWorks/siros/backend/internal/api.NewServer -->
<g id="node1" class="node">
<title>github.com/LederWorks/siros/backend/internal/api.NewServer</title>
<g id="a_node1"><a xlink:title="github.com/LederWorks/siros/backend/internal/api.NewServer | defined in server.go:30&#10;at server.go:34: calling [github.com/gorilla/mux.NewRouter]&#10;at server.go:45: calling [github.com/LederWorks/siros/backend/internal/controllers.NewControllers]&#10;at server.go:47: calling [(*github.com/LederWorks/siros/backend/internal/api.Server).setupRoutes]">
<path fill="lightblue" stroke="black" stroke-width="1.5" d="M398.7,-139C398.7,-139 323.16,-139 323.16,-139 317.16,-139 311.16,-133 311.16,-127 311.16,-127 311.16,-115 311.16,-115 311.16,-109 317.16,-103 323.16,-103 323.16,-103 398.7,-103 398.7,-103 404.7,-103 410.7,-109 410.7,-115 410.7,-115 410.7,-127 410.7,-127 410.7,-133 404.7,-139 398.7,-139"/>
<text xml:space="preserve" text-anchor="middle" x="360.93" y="-116.33" font-family="Verdana" font-size="14.00">NewServer</text>
</a>
</g>
</g>
<!-- (*github.com/LederWorks/siros/backend/internal/api.Server).setupRoutes -->
<g id="node2" class="node">
<title>(*github.com/LederWorks/siros/backend/internal/api.Server).setupRoutes</title>
<g id="a_node2"><a xlink:title="(*github.com/LederWorks/siros/backend/internal/api.Server).setupRoutes | defined in server.go:59&#10;at server.go:61: calling [github.com/LederWorks/siros/backend/internal/api/routes.SetupAPIRoutes]&#10;at server.go:64: calling [(*github.com/LederWorks/siros/backend/internal/api.Server).setupWebRoutes]">
<path fill="lightblue" stroke="black" stroke-width="0.5" d="M712.87,-52C712.87,-52 554.08,-52 554.08,-52 548.08,-52 542.08,-46 542.08,-40 542.08,-40 542.08,-28 542.08,-28 542.08,-22 548.08,-16 554.08,-16 554.08,-16 712.87,-16 712.87,-16 718.87,-16 724.87,-22 724.87,-28 724.87,-28 724.87,-40 724.87,-40 724.87,-46 718.87,-52 712.87,-52"/>
<text xml:space="preserve" text-anchor="middle" x="633.47" y="-29.32" font-family="Verdana" font-size="14.00">(*Server).setupRoutes</text>
</a>
</g>
</g>
<!-- github.com/LederWorks/siros/backend/internal/api.NewServer&#45;&gt;(*github.com/LederWorks/siros/backend/internal/api.Server).setupRoutes -->
<g id="edge12" class="edge">
<title>github.com/LederWorks/siros/backend/internal/api.NewServer&#45;&gt;(*github.com/LederWorks/siros/backend/internal/api.Server).setupRoutes</title>
<g id="a_edge12"><a xlink:title="at server.go:47: calling [(*github.com/LederWorks/siros/backend/internal/api.Server).setupRoutes]">
<path fill="none" stroke="black" d="M411.24,-105.14C454.37,-91.28 517.4,-71.01 565.16,-55.65"/>
<polygon fill="black" stroke="black" points="566.13,-59.01 574.58,-52.62 563.99,-52.35 566.13,-59.01"/>
</a>
</g>
</g>
<!-- github.com/LederWorks/siros/backend/internal/controllers.NewControllers -->
<g id="node10" class="node">
<title>github.com/LederWorks/siros/backend/internal/controllers.NewControllers</title>
<g id="a_node10"><a xlink:title="github.com/LederWorks/siros/backend/internal/controllers.NewControllers | defined in controllers.go:21">
<path fill="moccasin" stroke="black" stroke-width="1.5" d="M685.87,-124C685.87,-124 581.08,-124 581.08,-124 575.08,-124 569.08,-118 569.08,-112 569.08,-112 569.08,-100 569.08,-100 569.08,-94 575.08,-88 581.08,-88 581.08,-88 685.87,-88 685.87,-88 691.87,-88 697.87,-94 697.87,-100 697.87,-100 697.87,-112 697.87,-112 697.87,-118 691.87,-124 685.87,-124"/>
<text xml:space="preserve" text-anchor="middle" x="633.47" y="-101.33" font-family="Verdana" font-size="14.00">NewControllers</text>
</a>
</g>
</g>
<!-- github.com/LederWorks/siros/backend/internal/api.NewServer&#45;&gt;github.com/LederWorks/siros/backend/internal/controllers.NewControllers -->
<g id="edge8" class="edge">
<title>github.com/LederWorks/siros/backend/internal/api.NewServer&#45;&gt;github.com/LederWorks/siros/backend/internal/controllers.NewControllers</title>
<g id="a_edge8"><a xlink:title="at server.go:45: calling [github.com/LederWorks/siros/backend/internal/controllers.NewControllers]">
<path fill="none" stroke="saddlebrown" d="M411.24,-118.27C452.07,-116 510.75,-112.75 557.41,-110.16"/>
<polygon fill="saddlebrown" stroke="saddlebrown" points="557.39,-113.67 567.18,-109.62 557,-106.68 557.39,-113.67"/>
</a>
</g>
</g>
<!-- github.com/gorilla/mux.NewRouter -->
<g id="node11" class="node">
<title>github.com/gorilla/mux.NewRouter</title>
<g id="a_node11"><a xlink:title="github.com/gorilla/mux.NewRouter | defined in mux.go:25">
<path fill="moccasin" stroke="black" stroke-width="1.5" d="M1285.32,-276C1285.32,-276 1209.78,-276 1209.78,-276 1203.78,-276 1197.78,-270 1197.78,-264 1197.78,-264 1197.78,-252 1197.78,-252 1197.78,-246 1203.78,-240 1209.78,-240 1209.78,-240 1285.32,-240 1285.32,-240 1291.32,-240 1297.32,-246 1297.32,-252 1297.32,-252 1297.32,-264 1297.32,-264 1297.32,-270 1291.32,-276 1285.32,-276"/>
<text xml:space="preserve" text-anchor="middle" x="1247.55" y="-253.32" font-family="Verdana" font-size="14.00">NewRouter</text>
</a>
</g>
</g>
<!-- github.com/LederWorks/siros/backend/internal/api.NewServer&#45;&gt;github.com/gorilla/mux.NewRouter -->
<g id="edge7" class="edge">
<title>github.com/LederWorks/siros/backend/internal/api.NewServer&#45;&gt;github.com/gorilla/mux.NewRouter</title>
<g id="a_edge7"><a xlink:title="at server.go:34: calling [github.com/gorilla/mux.NewRouter]">
<path fill="none" stroke="saddlebrown" d="M396.73,-139.7C425.07,-153.17 466.55,-169 505.08,-169 505.08,-169 505.08,-169 1085.41,-169 1122.69,-169 1118.08,-203.44 1150.41,-222 1161.65,-228.45 1174.26,-234.14 1186.55,-238.98"/>
<polygon fill="saddlebrown" stroke="saddlebrown" points="1185.23,-242.22 1195.82,-242.48 1187.7,-235.68 1185.23,-242.22"/>
</a>
</g>
</g>
<!-- (*github.com/LederWorks/siros/backend/internal/api.Server).setupWebRoutes -->
<g id="node3" class="node">
<title>(*github.com/LederWorks/siros/backend/internal/api.Server).setupWebRoutes</title>
<g id="a_node3"><a xlink:title="(*github.com/LederWorks/siros/backend/internal/api.Server).setupWebRoutes | defined in server.go:68&#10;at server.go:72: calling [(*github.com/gorilla/mux.Route).Handler]&#10;at server.go:75: calling [(*github.com/gorilla/mux.Route).HandlerFunc]&#10;at server.go:72: calling [(*github.com/gorilla/mux.Router).PathPrefix]&#10;at server.go:75: calling [(*github.com/gorilla/mux.Router).PathPrefix]">
<path fill="lightblue" stroke="black" stroke-width="0.5" d="M1036.41,-52C1036.41,-52 846.87,-52 846.87,-52 840.87,-52 834.87,-46 834.87,-40 834.87,-40 834.87,-28 834.87,-28 834.87,-22 840.87,-16 846.87,-16 846.87,-16 1036.41,-16 1036.41,-16 1042.41,-16 1048.41,-22 1048.41,-28 1048.41,-28 1048.41,-40 1048.41,-40 1048.41,-46 1042.41,-52 1036.41,-52"/>
<text xml:space="preserve" text-anchor="middle" x="941.64" y="-29.32" font-family="Verdana" font-size="14.00">(*Server).setupWebRoutes</text>
</a>
</g>
</g>
<!-- (*github.com/LederWorks/siros/backend/internal/api.Server).setupRoutes&#45;&gt;(*github.com/LederWorks/siros/backend/internal/api.Server).setupWebRoutes -->
<g id="edge11" class="edge">
<title>(*github.com/LederWorks/siros/backend/internal/api.Server).setupRoutes&#45;&gt;(*github.com/LederWorks/siros/backend/internal/api.Server).setupWebRoutes</title>
<g id="a_edge11"><a xlink:title="at server.go:64: calling [(*github.com/LederWorks/siros/backend/internal/api.Server).setupWebRoutes]">
<path fill="none" stroke="black" d="M725.09,-34C755.93,-34 790.85,-34 823.46,-34"/>
<polygon fill="black" stroke="black" points="823.38,-37.5 833.38,-34 823.38,-30.5 823.38,-37.5"/>
</a>
</g>
</g>
<!-- github.com/LederWorks/siros/backend/internal/api/routes.SetupAPIRoutes -->
<g id="node9" class="node">
<title>github.com/LederWorks/siros/backend/internal/api/routes.SetupAPIRoutes</title>
<g id="a_node9"><a xlink:title="github.com/LederWorks/siros/backend/internal/api/routes.SetupAPIRoutes | defined in api.go:9">
<path fill="moccasin" stroke="black" stroke-width="1.5" d="M997.78,-124C997.78,-124 885.49,-124 885.49,-124 879.49,-124 873.49,-118 873.49,-112 873.49,-112 873.49,-100 873.49,-100 873.49,-94 879.49,-88 885.49,-88 885.49,-88 997.78,-88 997.78,-88 1003.78,-88 1009.78,-94 1009.78,-100 1009.78,-100 1009.78,-112 1009.78,-112 1009.78,-118 1003.78,-124 997.78,-124"/>
<text xml:space="preserve" text-anchor="middle" x="941.64" y="-101.33" font-family="Verdana" font-size="14.00">SetupAPIRoutes</text>
</a>
</g>
</g>
<!-- (*github.com/LederWorks/siros/backend/internal/api.Server).setupRoutes&#45;&gt;github.com/LederWorks/siros/backend/internal/api/routes.SetupAPIRoutes -->
<g id="edge9" class="edge">
<title>(*github.com/LederWorks/siros/backend/internal/api.Server).setupRoutes&#45;&gt;github.com/LederWorks/siros/backend/internal/api/routes.SetupAPIRoutes</title>
<g id="a_edge9"><a xlink:title="at server.go:61: calling [github.com/LederWorks/siros/backend/internal/api/routes.SetupAPIRoutes]">
<path fill="none" stroke="saddlebrown" d="M704.33,-52.15C742.76,-61.95 791.35,-74.05 834.87,-84 843.58,-85.99 852.71,-88 861.8,-89.96"/>
<polygon fill="saddlebrown" stroke="saddlebrown" points="860.85,-93.34 871.36,-92 862.31,-86.49 860.85,-93.34"/>
</a>
</g>
</g>
<!-- (*github.com/gorilla/mux.Router).PathPrefix -->
<g id="node12" class="node">
<title>(*github.com/gorilla/mux.Router).PathPrefix</title>
<g id="a_node12"><a xlink:title="(*github.com/gorilla/mux.Router).PathPrefix | defined in mux.go:335">
<path fill="moccasin" stroke="black" stroke-width="1.5" d="M1318.7,-60C1318.7,-60 1176.41,-60 1176.41,-60 1170.41,-60 1164.41,-54 1164.41,-48 1164.41,-48 1164.41,-36 1164.41,-36 1164.41,-30 1170.41,-24 1176.41,-24 1176.41,-24 1318.7,-24 1318.7,-24 1324.7,-24 1330.7,-30 1330.7,-36 1330.7,-36 1330.7,-48 1330.7,-48 1330.7,-54 1324.7,-60 1318.7,-60"/>
<text xml:space="preserve" text-anchor="middle" x="1247.55" y="-37.33" font-family="Verdana" font-size="14.00">(*Router).PathPrefix</text>
</a>
</g>
</g>
<!-- (*github.com/LederWorks/siros/backend/internal/api.Server).setupWebRoutes&#45;&gt;(*github.com/gorilla/mux.Router).PathPrefix -->
<g id="edge10" class="edge">
<title>(*github.com/LederWorks/siros/backend/internal/api.Server).setupWebRoutes&#45;&gt;(*github.com/gorilla/mux.Router).PathPrefix</title>
<g id="a_edge10"><a xlink:title="at server.go:72: calling [(*github.com/gorilla/mux.Router).PathPrefix]&#10;at server.go:75: calling [(*github.com/gorilla/mux.Router).PathPrefix]">
<path fill="none" stroke="saddlebrown" d="M1048.51,-36.79C1082.37,-37.68 1119.61,-38.66 1152.57,-39.53"/>
<polygon fill="saddlebrown" stroke="saddlebrown" points="1152.44,-43.02 1162.53,-39.79 1152.62,-36.03 1152.44,-43.02"/>
</a>
</g>
</g>
<!-- (*github.com/gorilla/mux.Route).Handler -->
<g id="node13" class="node">
<title>(*github.com/gorilla/mux.Route).Handler</title>
<g id="a_node13"><a xlink:title="(*github.com/gorilla/mux.Route).Handler | defined in route.go:118">
<path fill="moccasin" stroke="black" stroke-width="1.5" d="M1307.82,-132C1307.82,-132 1187.28,-132 1187.28,-132 1181.28,-132 1175.28,-126 1175.28,-120 1175.28,-120 1175.28,-108 1175.28,-108 1175.28,-102 1181.28,-96 1187.28,-96 1187.28,-96 1307.82,-96 1307.82,-96 1313.82,-96 1319.82,-102 1319.82,-108 1319.82,-108 1319.82,-120 1319.82,-120 1319.82,-126 1313.82,-132 1307.82,-132"/>
<text xml:space="preserve" text-anchor="middle" x="1247.55" y="-109.33" font-family="Verdana" font-size="14.00">(*Route).Handler</text>
</a>
</g>
</g>
<!-- (*github.com/LederWorks/siros/backend/internal/api.Server).setupWebRoutes&#45;&gt;(*github.com/gorilla/mux.Route).Handler -->
<g id="edge1" class="edge">
<title>(*github.com/LederWorks/siros/backend/internal/api.Server).setupWebRoutes&#45;&gt;(*github.com/gorilla/mux.Route).Handler</title>
<g id="a_edge1"><a xlink:title="at server.go:72: calling [(*github.com/gorilla/mux.Route).Handler]">
<path fill="none" stroke="saddlebrown" d="M1011.6,-52.15C1057.02,-64.11 1116.69,-79.82 1164.54,-92.41"/>
<polygon fill="saddlebrown" stroke="saddlebrown" points="1163.47,-95.75 1174.03,-94.91 1165.25,-88.98 1163.47,-95.75"/>
</a>
</g>
</g>
<!-- (*github.com/gorilla/mux.Route).HandlerFunc -->
<g id="node14" class="node">
<title>(*github.com/gorilla/mux.Route).HandlerFunc</title>
<g id="a_node14"><a xlink:title="(*github.com/gorilla/mux.Route).HandlerFunc | defined in route.go:126">
<path fill="moccasin" stroke="black" stroke-width="1.5" d="M1324.7,-204C1324.7,-204 1170.41,-204 1170.41,-204 1164.41,-204 1158.41,-198 1158.41,-192 1158.41,-192 1158.41,-180 1158.41,-180 1158.41,-174 1164.41,-168 1170.41,-168 1170.41,-168 1324.7,-168 1324.7,-168 1330.7,-168 1336.7,-174 1336.7,-180 1336.7,-180 1336.7,-192 1336.7,-192 1336.7,-198 1330.7,-204 1324.7,-204"/>
<text xml:space="preserve" text-anchor="middle" x="1247.55" y="-181.32" font-family="Verdana" font-size="14.00">(*Route).HandlerFunc</text>
</a>
</g>
</g>
<!-- (*github.com/LederWorks/siros/backend/internal/api.Server).setupWebRoutes&#45;&gt;(*github.com/gorilla/mux.Route).HandlerFunc -->
<g id="edge2" class="edge">
<title>(*github.com/LederWorks/siros/backend/internal/api.Server).setupWebRoutes&#45;&gt;(*github.com/gorilla/mux.Route).HandlerFunc</title>
<g id="a_edge2"><a xlink:title="at server.go:75: calling [(*github.com/gorilla/mux.Route).HandlerFunc]">
<path fill="none" stroke="saddlebrown" d="M1005.32,-52.18C1019.86,-57.41 1034.99,-63.71 1048.41,-71 1098.79,-98.38 1100.33,-122.08 1150.41,-150 1158.95,-154.76 1168.24,-159.14 1177.58,-163.07"/>
<polygon fill="saddlebrown" stroke="saddlebrown" points="1176.11,-166.25 1186.69,-166.75 1178.73,-159.76 1176.11,-166.25"/>
</a>
</g>
</g>
<!-- (*github.com/LederWorks/siros/backend/internal/api.Server).Router -->
<g id="node4" class="node">
<title>(*github.com/LederWorks/siros/backend/internal/api.Server).Router</title>
<g id="a_node4"><a xlink:title="(*github.com/LederWorks/siros/backend/internal/api.Server).Router | defined in server.go:52&#10;at server.go:54: calling [github.com/LederWorks/siros/backend/internal/api/middleware.DefaultConfig]&#10;at server.go:55: calling [(*github.com/LederWorks/siros/backend/internal/api/middleware.Config).Apply]">
<path fill="lightblue" stroke="black" stroke-width="1.5" d="M420.08,-242C420.08,-242 301.79,-242 301.79,-242 295.79,-242 289.79,-236 289.79,-230 289.79,-230 289.79,-218 289.79,-218 289.79,-212 295.79,-206 301.79,-206 301.79,-206 420.08,-206 420.08,-206 426.08,-206 432.08,-212 432.08,-218 432.08,-218 432.08,-230 432.08,-230 432.08,-236 426.08,-242 420.08,-242"/>
<text xml:space="preserve" text-anchor="middle" x="360.93" y="-219.32" font-family="Verdana" font-size="14.00">(*Server).Router</text>
</a>
</g>
</g>
<!-- github.com/LederWorks/siros/backend/internal/api/middleware.DefaultConfig -->
<g id="node7" class="node">
<title>github.com/LederWorks/siros/backend/internal/api/middleware.DefaultConfig</title>
<g id="a_node7"><a xlink:title="github.com/LederWorks/siros/backend/internal/api/middleware.DefaultConfig | defined in middleware.go:19">
<path fill="moccasin" stroke="black" stroke-width="1.5" d="M680.62,-242C680.62,-242 586.33,-242 586.33,-242 580.33,-242 574.33,-236 574.33,-230 574.33,-230 574.33,-218 574.33,-218 574.33,-212 580.33,-206 586.33,-206 586.33,-206 680.62,-206 680.62,-206 686.62,-206 692.62,-212 692.62,-218 692.62,-218 692.62,-230 692.62,-230 692.62,-236 686.62,-242 680.62,-242"/>
<text xml:space="preserve" text-anchor="middle" x="633.47" y="-219.32" font-family="Verdana" font-size="14.00">DefaultConfig</text>
</a>
</g>
</g>
<!-- (*github.com/LederWorks/siros/backend/internal/api.Server).Router&#45;&gt;github.com/LederWorks/siros/backend/internal/api/middleware.DefaultConfig -->
<g id="edge4" class="edge">
<title>(*github.com/LederWorks/siros/backend/internal/api.Server).Router&#45;&gt;github.com/LederWorks/siros/backend/internal/api/middleware.DefaultConfig</title>
<g id="a_edge4"><a xlink:title="at server.go:54: calling [github.com/LederWorks/siros/backend/internal/api/middleware.DefaultConfig]">
<path fill="none" stroke="saddlebrown" d="M432.66,-224C472.7,-224 522.6,-224 562.51,-224"/>
<polygon fill="saddlebrown" stroke="saddlebrown" points="562.51,-227.5 572.51,-224 562.51,-220.5 562.51,-227.5"/>
</a>
</g>
</g>
<!-- (*github.com/LederWorks/siros/backend/internal/api/middleware.Config).Apply -->
<g id="node8" class="node">
<title>(*github.com/LederWorks/siros/backend/internal/api/middleware.Config).Apply</title>
<g id="a_node8"><a xlink:title="(*github.com/LederWorks/siros/backend/internal/api/middleware.Config).Apply | defined in middleware.go:29">
<path fill="moccasin" stroke="black" stroke-width="1.5" d="M688.49,-314C688.49,-314 578.45,-314 578.45,-314 572.45,-314 566.45,-308 566.45,-302 566.45,-302 566.45,-290 566.45,-290 566.45,-284 572.45,-278 578.45,-278 578.45,-278 688.49,-278 688.49,-278 694.49,-278 700.49,-284 700.49,-290 700.49,-290 700.49,-302 700.49,-302 700.49,-308 694.49,-314 688.49,-314"/>
<text xml:space="preserve" text-anchor="middle" x="633.47" y="-291.32" font-family="Verdana" font-size="14.00">(*Config).Apply</text>
</a>
</g>
</g>
<!-- (*github.com/LederWorks/siros/backend/internal/api.Server).Router&#45;&gt;(*github.com/LederWorks/siros/backend/internal/api/middleware.Config).Apply -->
<g id="edge5" class="edge">
<title>(*github.com/LederWorks/siros/backend/internal/api.Server).Router&#45;&gt;(*github.com/LederWorks/siros/backend/internal/api/middleware.Config).Apply</title>
<g id="a_edge5"><a xlink:title="at server.go:55: calling [(*github.com/LederWorks/siros/backend/internal/api/middleware.Config).Apply]">
<path fill="none" stroke="saddlebrown" d="M432.31,-242.73C469.95,-252.75 516.37,-265.1 555.03,-275.39"/>
<polygon fill="saddlebrown" stroke="saddlebrown" points="553.69,-278.65 564.25,-277.84 555.49,-271.89 553.69,-278.65"/>
</a>
</g>
</g>
<!-- github.com/LederWorks/siros/backend/cmd/siros&#45;server.run -->
<g id="node5" class="node">
<title>github.com/LederWorks/siros/backend/cmd/siros&#45;server.run</title>
<g id="a_node5"><a xlink:title="github.com/LederWorks/siros/backend/cmd/siros&#45;server.run | defined in main.go:47&#10;at main.go:78: calling [github.com/LederWorks/siros/backend/internal/api.NewServer]">
<path fill="moccasin" stroke="black" stroke-width="0.5" d="M116.89,-151C116.89,-151 86.89,-151 86.89,-151 80.89,-151 74.89,-145 74.89,-139 74.89,-139 74.89,-127 74.89,-127 74.89,-121 80.89,-115 86.89,-115 86.89,-115 116.89,-115 116.89,-115 122.89,-115 128.89,-121 128.89,-127 128.89,-127 128.89,-139 128.89,-139 128.89,-145 122.89,-151 116.89,-151"/>
<text xml:space="preserve" text-anchor="middle" x="101.89" y="-128.32" font-family="Verdana" font-size="14.00">run</text>
</a>
</g>
</g>
<!-- github.com/LederWorks/siros/backend/cmd/siros&#45;server.run&#45;&gt;github.com/LederWorks/siros/backend/internal/api.NewServer -->
<g id="edge3" class="edge">
<title>github.com/LederWorks/siros/backend/cmd/siros&#45;server.run&#45;&gt;github.com/LederWorks/siros/backend/internal/api.NewServer</title>
<g id="a_edge3"><a xlink:title="at main.go:78: calling [github.com/LederWorks/siros/backend/internal/api.NewServer]">
<path fill="none" stroke="saddlebrown" d="M128.96,-131.78C168.63,-129.93 245.29,-126.35 299.38,-123.83"/>
<polygon fill="saddlebrown" stroke="saddlebrown" points="299.23,-127.34 309.05,-123.38 298.9,-120.35 299.23,-127.34"/>
</a>
</g>
</g>
<!-- (*github.com/LederWorks/siros/backend/cmd/siros&#45;server.App).startServer -->
<g id="node6" class="node">
<title>(*github.com/LederWorks/siros/backend/cmd/siros&#45;server.App).startServer</title>
<g id="a_node6"><a xlink:title="(*github.com/LederWorks/siros/backend/cmd/siros&#45;server.App).startServer | defined in main.go:111&#10;at main.go:121: calling [(*github.com/LederWorks/siros/backend/internal/api.Server).Router]">
<path fill="moccasin" stroke="black" stroke-width="0.5" d="M167.79,-223C167.79,-223 36,-223 36,-223 30,-223 24,-217 24,-211 24,-211 24,-199 24,-199 24,-193 30,-187 36,-187 36,-187 167.79,-187 167.79,-187 173.79,-187 179.79,-193 179.79,-199 179.79,-199 179.79,-211 179.79,-211 179.79,-217 173.79,-223 167.79,-223"/>
<text xml:space="preserve" text-anchor="middle" x="101.89" y="-200.32" font-family="Verdana" font-size="14.00">(*App).startServer</text>
</a>
</g>
</g>
<!-- (*github.com/LederWorks/siros/backend/cmd/siros&#45;server.App).startServer&#45;&gt;(*github.com/LederWorks/siros/backend/internal/api.Server).Router -->
<g id="edge6" class="edge">
<title>(*github.com/LederWorks/siros/backend/cmd/siros&#45;server.App).startServer&#45;&gt;(*github.com/LederWorks/siros/backend/internal/api.Server).Router</title>
<g id="a_edge6"><a xlink:title="at main.go:121: calling [(*github.com/LederWorks/siros/backend/internal/api.Server).Router]">
<path fill="none" stroke="saddlebrown" d="M180.02,-210.7C210.97,-212.99 246.68,-215.63 278.09,-217.95"/>
<polygon fill="saddlebrown" stroke="saddlebrown" points="277.71,-221.43 287.94,-218.68 278.22,-214.45 277.71,-221.43"/>
</a>
</g>
</g>
</g>
</svg>
