<?xml version="1.0" encoding="UTF-8" standalone="no"?>
<!DOCTYPE svg PUBLIC "-//W3C//DTD SVG 1.1//EN"
 "http://www.w3.org/Graphics/SVG/1.1/DTD/svg11.dtd">
<!-- Generated by graphviz version 14.0.1 (20251006.0113)
 -->
<!-- Title: gocallvis Pages: 1 -->
<svg width="644pt" height="229pt"
 viewBox="0.00 0.00 644.00 229.00" xmlns="http://www.w3.org/2000/svg" xmlns:xlink="http://www.w3.org/1999/xlink">
<g id="graph0" class="graph" transform="scale(1 1) rotate(0) translate(0 229)">
<title>gocallvis</title>
<polygon fill="lightgray" stroke="none" points="0,0 0,-229 644.21,-229 644.21,0 0,0"/>
<g id="clust1" class="cluster">
<title>cluster_focus</title>
<polygon fill="#e6ecfa" stroke="black" stroke-width="0.5" points="5.12,-8 5.12,-221 636.21,-221 636.21,-8 5.12,-8"/>
<text xml:space="preserve" text-anchor="middle" x="320.67" y="-199.9" font-family="Arial" font-size="18.00">config</text>
</g>
<g id="clust2" class="cluster">
<title>cluster_github.com/LederWorks/siros/backend/cmd/siros&#45;server</title>
<g id="a_clust2"><a xlink:href="/?f=github.com/LederWorks/siros/backend/cmd/siros-server" xlink:title="package: github.com/LederWorks/siros/backend/cmd/siros&#45;server">
<polygon fill="lightyellow" stroke="black" stroke-width="0.8" points="16,-16 16,-96 86,-96 86,-16 16,-16"/>
<text xml:space="preserve" text-anchor="middle" x="51" y="-76.8" font-family="Tahoma bold" font-size="16.00">main</text>
</a>
</g>
</g>
<g id="clust3" class="cluster">
<title>cluster_github.com/LederWorks/siros/backend/internal/storage</title>
<g id="a_clust3"><a xlink:href="/?f=github.com/LederWorks/siros/backend/internal/storage" xlink:title="package: github.com/LederWorks/siros/backend/internal/storage">
<polygon fill="lightyellow" stroke="black" stroke-width="0.8" points="13.12,-104 13.12,-184 89.88,-184 89.88,-104 13.12,-104"/>
<text xml:space="preserve" text-anchor="middle" x="51.5" y="-164.8" font-family="Tahoma bold" font-size="16.00">storage</text>
</a>
</g>
</g>
<g id="clust4" class="cluster">
<title>cluster_gopkg.in/yaml.v3</title>
<g id="a_clust4"><a xlink:href="/?f=gopkg.in/yaml.v3" xlink:title="package: gopkg.in/yaml.v3">
<polygon fill="lightyellow" stroke="black" stroke-width="0.8" points="513.42,-84 513.42,-164 628.21,-164 628.21,-84 513.42,-84"/>
<text xml:space="preserve" text-anchor="middle" x="570.81" y="-144.8" font-family="Tahoma bold" font-size="16.00">yaml</text>
</a>
</g>
</g>
<!-- github.com/LederWorks/siros/backend/internal/config.Load -->
<g id="node1" class="node">
<title>github.com/LederWorks/siros/backend/internal/config.Load</title>
<g id="a_node1"><a xlink:title="github.com/LederWorks/siros/backend/internal/config.Load | defined in config.go:108&#10;at config.go:143: calling [github.com/LederWorks/siros/backend/internal/config.loadEnvVars]&#10;at config.go:137: calling [gopkg.in/yaml.v3.Unmarshal]">
<path fill="lightblue" stroke="black" stroke-width="1.5" d="M319.04,-60C319.04,-60 287,-60 287,-60 281,-60 275,-54 275,-48 275,-48 275,-36 275,-36 275,-30 281,-24 287,-24 287,-24 319.04,-24 319.04,-24 325.04,-24 331.04,-30 331.04,-36 331.04,-36 331.04,-48 331.04,-48 331.04,-54 325.04,-60 319.04,-60"/>
<text xml:space="preserve" text-anchor="middle" x="303.02" y="-37.33" font-family="Verdana" font-size="14.00">Load</text>
</a>
</g>
</g>
<!-- github.com/LederWorks/siros/backend/internal/config.loadEnvVars -->
<g id="node2" class="node">
<title>github.com/LederWorks/siros/backend/internal/config.loadEnvVars</title>
<g id="a_node2"><a xlink:title="github.com/LederWorks/siros/backend/internal/config.loadEnvVars | defined in config.go:149">
<path fill="lightblue" stroke="black" stroke-width="0.5" d="M613.46,-56C613.46,-56 528.17,-56 528.17,-56 522.17,-56 516.17,-50 516.17,-44 516.17,-44 516.17,-32 516.17,-32 516.17,-26 522.17,-20 528.17,-20 528.17,-20 613.46,-20 613.46,-20 619.46,-20 625.46,-26 625.46,-32 625.46,-32 625.46,-44 625.46,-44 625.46,-50 619.46,-56 613.46,-56"/>
<text xml:space="preserve" text-anchor="middle" x="570.81" y="-33.33" font-family="Verdana" font-size="14.00">loadEnvVars</text>
</a>
</g>
</g>
<!-- github.com/LederWorks/siros/backend/internal/config.Load&#45;&gt;github.com/LederWorks/siros/backend/internal/config.loadEnvVars -->
<g id="edge1" class="edge">
<title>github.com/LederWorks/siros/backend/internal/config.Load&#45;&gt;github.com/LederWorks/siros/backend/internal/config.loadEnvVars</title>
<g id="a_edge1"><a xlink:title="at config.go:143: calling [github.com/LederWorks/siros/backend/internal/config.loadEnvVars]">
<path fill="none" stroke="black" d="M331.46,-41.59C371.95,-40.98 448.9,-39.82 504.43,-38.98"/>
<polygon fill="black" stroke="black" points="504.47,-42.48 514.42,-38.83 504.37,-35.48 504.47,-42.48"/>
</a>
</g>
</g>
<!-- gopkg.in/yaml.v3.Unmarshal -->
<g id="node6" class="node">
<title>gopkg.in/yaml.v3.Unmarshal</title>
<g id="a_node6"><a xlink:title="gopkg.in/yaml.v3.Unmarshal | defined in yaml.go:88">
<path fill="moccasin" stroke="black" stroke-width="1.5" d="M608.21,-128C608.21,-128 533.42,-128 533.42,-128 527.42,-128 521.42,-122 521.42,-116 521.42,-116 521.42,-104 521.42,-104 521.42,-98 527.42,-92 533.42,-92 533.42,-92 608.21,-92 608.21,-92 614.21,-92 620.21,-98 620.21,-104 620.21,-104 620.21,-116 620.21,-116 620.21,-122 614.21,-128 608.21,-128"/>
<text xml:space="preserve" text-anchor="middle" x="570.81" y="-105.33" font-family="Verdana" font-size="14.00">Unmarshal</text>
</a>
</g>
</g>
<!-- github.com/LederWorks/siros/backend/internal/config.Load&#45;&gt;gopkg.in/yaml.v3.Unmarshal -->
<g id="edge2" class="edge">
<title>github.com/LederWorks/siros/backend/internal/config.Load&#45;&gt;gopkg.in/yaml.v3.Unmarshal</title>
<g id="a_edge2"><a xlink:title="at config.go:137: calling [gopkg.in/yaml.v3.Unmarshal]">
<path fill="none" stroke="saddlebrown" d="M331.46,-49.02C373.37,-59.74 454.31,-80.45 510.16,-94.74"/>
<polygon fill="saddlebrown" stroke="saddlebrown" points="508.95,-98.04 519.51,-97.13 510.69,-91.26 508.95,-98.04"/>
</a>
</g>
</g>
<!-- (*github.com/LederWorks/siros/backend/internal/config.DatabaseConfig).ConnectionString -->
<g id="node3" class="node">
<title>(*github.com/LederWorks/siros/backend/internal/config.DatabaseConfig).ConnectionString</title>
<g id="a_node3"><a xlink:title="(*github.com/LederWorks/siros/backend/internal/config.DatabaseConfig).ConnectionString | defined in config.go:163">
<path fill="lightblue" stroke="black" stroke-width="1.5" d="M431.17,-148C431.17,-148 174.88,-148 174.88,-148 168.88,-148 162.88,-142 162.88,-136 162.88,-136 162.88,-124 162.88,-124 162.88,-118 168.88,-112 174.88,-112 174.88,-112 431.17,-112 431.17,-112 437.17,-112 443.17,-118 443.17,-124 443.17,-124 443.17,-136 443.17,-136 443.17,-142 437.17,-148 431.17,-148"/>
<text xml:space="preserve" text-anchor="middle" x="303.02" y="-125.33" font-family="Verdana" font-size="14.00">(*DatabaseConfig).ConnectionString</text>
</a>
</g>
</g>
<!-- github.com/LederWorks/siros/backend/cmd/siros&#45;server.run -->
<g id="node4" class="node">
<title>github.com/LederWorks/siros/backend/cmd/siros&#45;server.run</title>
<g id="a_node4"><a xlink:title="github.com/LederWorks/siros/backend/cmd/siros&#45;server.run | defined in main.go:47&#10;at main.go:55: calling [github.com/LederWorks/siros/backend/internal/config.Load]">
<path fill="moccasin" stroke="black" stroke-width="0.5" d="M66,-60C66,-60 36,-60 36,-60 30,-60 24,-54 24,-48 24,-48 24,-36 24,-36 24,-30 30,-24 36,-24 36,-24 66,-24 66,-24 72,-24 78,-30 78,-36 78,-36 78,-48 78,-48 78,-54 72,-60 66,-60"/>
<text xml:space="preserve" text-anchor="middle" x="51" y="-37.33" font-family="Verdana" font-size="14.00">run</text>
</a>
</g>
</g>
<!-- github.com/LederWorks/siros/backend/cmd/siros&#45;server.run&#45;&gt;github.com/LederWorks/siros/backend/internal/config.Load -->
<g id="edge3" class="edge">
<title>github.com/LederWorks/siros/backend/cmd/siros&#45;server.run&#45;&gt;github.com/LederWorks/siros/backend/internal/config.Load</title>
<g id="a_edge3"><a xlink:title="at main.go:55: calling [github.com/LederWorks/siros/backend/internal/config.Load]">
<path fill="none" stroke="saddlebrown" d="M77.81,-42C121.8,-42 211.51,-42 263.12,-42"/>
<polygon fill="saddlebrown" stroke="saddlebrown" points="262.94,-45.5 272.94,-42 262.94,-38.5 262.94,-45.5"/>
</a>
</g>
</g>
<!-- github.com/LederWorks/siros/backend/internal/storage.New -->
<g id="node5" class="node">
<title>github.com/LederWorks/siros/backend/internal/storage.New</title>
<g id="a_node5"><a xlink:title="github.com/LederWorks/siros/backend/internal/storage.New | defined in storage.go:24&#10;at storage.go:25: calling [(*github.com/LederWorks/siros/backend/internal/config.DatabaseConfig).ConnectionString]">
<path fill="moccasin" stroke="black" stroke-width="1.5" d="M66,-148C66,-148 36,-148 36,-148 30,-148 24,-142 24,-136 24,-136 24,-124 24,-124 24,-118 30,-112 36,-112 36,-112 66,-112 66,-112 72,-112 78,-118 78,-124 78,-124 78,-136 78,-136 78,-142 72,-148 66,-148"/>
<text xml:space="preserve" text-anchor="middle" x="51" y="-125.33" font-family="Verdana" font-size="14.00">New</text>
</a>
</g>
</g>
<!-- github.com/LederWorks/siros/backend/internal/storage.New&#45;&gt;(*github.com/LederWorks/siros/backend/internal/config.DatabaseConfig).ConnectionString -->
<g id="edge4" class="edge">
<title>github.com/LederWorks/siros/backend/internal/storage.New&#45;&gt;(*github.com/LederWorks/siros/backend/internal/config.DatabaseConfig).ConnectionString</title>
<g id="a_edge4"><a xlink:title="at storage.go:25: calling [(*github.com/LederWorks/siros/backend/internal/config.DatabaseConfig).ConnectionString]">
<path fill="none" stroke="saddlebrown" d="M78.28,-130C96.71,-130 123,-130 151.11,-130"/>
<polygon fill="saddlebrown" stroke="saddlebrown" points="150.88,-133.5 160.88,-130 150.88,-126.5 150.88,-133.5"/>
</a>
</g>
</g>
</g>
</svg>
