<?xml version="1.0" encoding="UTF-8" standalone="no"?>
<!DOCTYPE svg PUBLIC "-//W3C//DTD SVG 1.1//EN"
 "http://www.w3.org/Graphics/SVG/1.1/DTD/svg11.dtd">
<!-- Generated by graphviz version 14.0.1 (20251006.0113)
 -->
<!-- Title: gocallvis Pages: 1 -->
<svg width="880pt" height="229pt"
 viewBox="0.00 0.00 880.00 229.00" xmlns="http://www.w3.org/2000/svg" xmlns:xlink="http://www.w3.org/1999/xlink">
<g id="graph0" class="graph" transform="scale(1 1) rotate(0) translate(0 229)">
<title>gocallvis</title>
<polygon fill="lightgray" stroke="none" points="0,0 0,-229 880,-229 880,0 0,0"/>
<g id="clust1" class="cluster">
<title>cluster_focus</title>
<polygon fill="#e6ecfa" stroke="black" stroke-width="0.5" points="5.12,-8 5.12,-221 872,-221 872,-8 5.12,-8"/>
<text xml:space="preserve" text-anchor="middle" x="438.56" y="-199.9" font-family="Arial" font-size="18.00">config</text>
</g>
<g id="clust2" class="cluster">
<title>cluster_github.com/LederWorks/siros/backend/cmd/siros&#45;server</title>
<g id="a_clust2"><a xlink:href="/?f=github.com/LederWorks/siros/backend/cmd/siros-server" xlink:title="package: github.com/LederWorks/siros/backend/cmd/siros&#45;server">
<polygon fill="lightyellow" stroke="black" stroke-width="0.8" points="16,-16 16,-96 86,-96 86,-16 16,-16"/>
<text xml:space="preserve" text-anchor="middle" x="51" y="-76.8" font-family="Tahoma bold" font-size="16.00">main</text>
</a>
</g>
</g>
<g id="clust3" class="cluster">
<title>cluster_github.com/LederWorks/siros/backend/internal/storage</title>
<g id="a_clust3"><a xlink:href="/?f=github.com/LederWorks/siros/backend/internal/storage" xlink:title="package: github.com/LederWorks/siros/backend/internal/storage">
<polygon fill="lightyellow" stroke="black" stroke-width="0.8" points="13.12,-104 13.12,-184 89.88,-184 89.88,-104 13.12,-104"/>
<text xml:space="preserve" text-anchor="middle" x="51.5" y="-164.8" font-family="Tahoma bold" font-size="16.00">storage</text>
</a>
</g>
</g>
<g id="clust4" class="cluster">
<title>cluster_gopkg.in/yaml.v3</title>
<g id="a_clust4"><a xlink:href="/?f=gopkg.in/yaml.v3" xlink:title="package: gopkg.in/yaml.v3">
<polygon fill="lightyellow" stroke="black" stroke-width="0.8" points="729.83,-82 729.83,-162 844.62,-162 844.62,-82 729.83,-82"/>
<text xml:space="preserve" text-anchor="middle" x="787.23" y="-142.8" font-family="Tahoma bold" font-size="16.00">yaml</text>
</a>
</g>
</g>
<!-- github.com/LederWorks/siros/backend/internal/config.loadConfigFile -->
<g id="node1" class="node">
<title>github.com/LederWorks/siros/backend/internal/config.loadConfigFile</title>
<g id="a_node1"><a xlink:title="github.com/LederWorks/siros/backend/internal/config.loadConfigFile | defined in config.go:144&#10;at config.go:146: calling [github.com/LederWorks/siros/backend/internal/config.validateConfigPath]&#10;at config.go:168: calling [gopkg.in/yaml.v3.Unmarshal]">
<path fill="lightblue" stroke="black" stroke-width="0.5" d="M625.45,-59C625.45,-59 528.16,-59 528.16,-59 522.16,-59 516.16,-53 516.16,-47 516.16,-47 516.16,-35 516.16,-35 516.16,-29 522.16,-23 528.16,-23 528.16,-23 625.45,-23 625.45,-23 631.45,-23 637.45,-29 637.45,-35 637.45,-35 637.45,-47 637.45,-47 637.45,-53 631.45,-59 625.45,-59"/>
<text xml:space="preserve" text-anchor="middle" x="576.81" y="-36.33" font-family="Verdana" font-size="14.00">loadConfigFile</text>
</a>
</g>
</g>
<!-- github.com/LederWorks/siros/backend/internal/config.validateConfigPath -->
<g id="node2" class="node">
<title>github.com/LederWorks/siros/backend/internal/config.validateConfigPath</title>
<g id="a_node2"><a xlink:title="github.com/LederWorks/siros/backend/internal/config.validateConfigPath | defined in config.go:176">
<path fill="lightblue" stroke="black" stroke-width="0.5" d="M852,-54C852,-54 722.46,-54 722.46,-54 716.46,-54 710.46,-48 710.46,-42 710.46,-42 710.46,-30 710.46,-30 710.46,-24 716.46,-18 722.46,-18 722.46,-18 852,-18 852,-18 858,-18 864,-24 864,-30 864,-30 864,-42 864,-42 864,-48 858,-54 852,-54"/>
<text xml:space="preserve" text-anchor="middle" x="787.23" y="-31.32" font-family="Verdana" font-size="14.00">validateConfigPath</text>
</a>
</g>
</g>
<!-- github.com/LederWorks/siros/backend/internal/config.loadConfigFile&#45;&gt;github.com/LederWorks/siros/backend/internal/config.validateConfigPath -->
<g id="edge3" class="edge">
<title>github.com/LederWorks/siros/backend/internal/config.loadConfigFile&#45;&gt;github.com/LederWorks/siros/backend/internal/config.validateConfigPath</title>
<g id="a_edge3"><a xlink:title="at config.go:146: calling [github.com/LederWorks/siros/backend/internal/config.validateConfigPath]">
<path fill="none" stroke="black" d="M637.53,-39.57C656.72,-39.11 678.37,-38.59 699.1,-38.09"/>
<polygon fill="black" stroke="black" points="699.08,-41.59 708.99,-37.85 698.91,-34.59 699.08,-41.59"/>
</a>
</g>
</g>
<!-- gopkg.in/yaml.v3.Unmarshal -->
<g id="node8" class="node">
<title>gopkg.in/yaml.v3.Unmarshal</title>
<g id="a_node8"><a xlink:title="gopkg.in/yaml.v3.Unmarshal | defined in yaml.go:88">
<path fill="moccasin" stroke="black" stroke-width="1.5" d="M824.62,-126C824.62,-126 749.83,-126 749.83,-126 743.83,-126 737.83,-120 737.83,-114 737.83,-114 737.83,-102 737.83,-102 737.83,-96 743.83,-90 749.83,-90 749.83,-90 824.62,-90 824.62,-90 830.62,-90 836.62,-96 836.62,-102 836.62,-102 836.62,-114 836.62,-114 836.62,-120 830.62,-126 824.62,-126"/>
<text xml:space="preserve" text-anchor="middle" x="787.23" y="-103.33" font-family="Verdana" font-size="14.00">Unmarshal</text>
</a>
</g>
</g>
<!-- github.com/LederWorks/siros/backend/internal/config.loadConfigFile&#45;&gt;gopkg.in/yaml.v3.Unmarshal -->
<g id="edge4" class="edge">
<title>github.com/LederWorks/siros/backend/internal/config.loadConfigFile&#45;&gt;gopkg.in/yaml.v3.Unmarshal</title>
<g id="a_edge4"><a xlink:title="at config.go:168: calling [gopkg.in/yaml.v3.Unmarshal]">
<path fill="none" stroke="saddlebrown" d="M629.61,-59.17C654.05,-67.59 683.66,-77.57 710.46,-86 715.58,-87.61 720.9,-89.24 726.26,-90.86"/>
<polygon fill="saddlebrown" stroke="saddlebrown" points="725.18,-94.19 735.77,-93.69 727.18,-87.48 725.18,-94.19"/>
</a>
</g>
</g>
<!-- github.com/LederWorks/siros/backend/internal/config.Load -->
<g id="node3" class="node">
<title>github.com/LederWorks/siros/backend/internal/config.Load</title>
<g id="a_node3"><a xlink:title="github.com/LederWorks/siros/backend/internal/config.Load | defined in config.go:110&#10;at config.go:133: calling [github.com/LederWorks/siros/backend/internal/config.loadConfigFile]&#10;at config.go:138: calling [github.com/LederWorks/siros/backend/internal/config.loadEnvVars]">
<path fill="lightblue" stroke="black" stroke-width="1.5" d="M319.04,-60C319.04,-60 287,-60 287,-60 281,-60 275,-54 275,-48 275,-48 275,-36 275,-36 275,-30 281,-24 287,-24 287,-24 319.04,-24 319.04,-24 325.04,-24 331.04,-30 331.04,-36 331.04,-36 331.04,-48 331.04,-48 331.04,-54 325.04,-60 319.04,-60"/>
<text xml:space="preserve" text-anchor="middle" x="303.02" y="-37.33" font-family="Verdana" font-size="14.00">Load</text>
</a>
</g>
</g>
<!-- github.com/LederWorks/siros/backend/internal/config.Load&#45;&gt;github.com/LederWorks/siros/backend/internal/config.loadConfigFile -->
<g id="edge5" class="edge">
<title>github.com/LederWorks/siros/backend/internal/config.Load&#45;&gt;github.com/LederWorks/siros/backend/internal/config.loadConfigFile</title>
<g id="a_edge5"><a xlink:title="at config.go:133: calling [github.com/LederWorks/siros/backend/internal/config.loadConfigFile]">
<path fill="none" stroke="black" d="M331.58,-41.9C371.79,-41.75 447.92,-41.47 504.54,-41.26"/>
<polygon fill="black" stroke="black" points="504.44,-44.76 514.43,-41.23 504.42,-37.76 504.44,-44.76"/>
</a>
</g>
</g>
<!-- github.com/LederWorks/siros/backend/internal/config.loadEnvVars -->
<g id="node4" class="node">
<title>github.com/LederWorks/siros/backend/internal/config.loadEnvVars</title>
<g id="a_node4"><a xlink:title="github.com/LederWorks/siros/backend/internal/config.loadEnvVars | defined in config.go:214">
<path fill="lightblue" stroke="black" stroke-width="0.5" d="M619.45,-131C619.45,-131 534.16,-131 534.16,-131 528.16,-131 522.16,-125 522.16,-119 522.16,-119 522.16,-107 522.16,-107 522.16,-101 528.16,-95 534.16,-95 534.16,-95 619.45,-95 619.45,-95 625.45,-95 631.45,-101 631.45,-107 631.45,-107 631.45,-119 631.45,-119 631.45,-125 625.45,-131 619.45,-131"/>
<text xml:space="preserve" text-anchor="middle" x="576.81" y="-108.33" font-family="Verdana" font-size="14.00">loadEnvVars</text>
</a>
</g>
</g>
<!-- github.com/LederWorks/siros/backend/internal/config.Load&#45;&gt;github.com/LederWorks/siros/backend/internal/config.loadEnvVars -->
<g id="edge6" class="edge">
<title>github.com/LederWorks/siros/backend/internal/config.Load&#45;&gt;github.com/LederWorks/siros/backend/internal/config.loadEnvVars</title>
<g id="a_edge6"><a xlink:title="at config.go:138: calling [github.com/LederWorks/siros/backend/internal/config.loadEnvVars]">
<path fill="none" stroke="black" d="M331.58,-49.2C373.33,-60.11 453.8,-81.13 510.95,-96.06"/>
<polygon fill="black" stroke="black" points="510.03,-99.43 520.59,-98.57 511.79,-92.66 510.03,-99.43"/>
</a>
</g>
</g>
<!-- (*github.com/LederWorks/siros/backend/internal/config.DatabaseConfig).ConnectionString -->
<g id="node5" class="node">
<title>(*github.com/LederWorks/siros/backend/internal/config.DatabaseConfig).ConnectionString</title>
<g id="a_node5"><a xlink:title="(*github.com/LederWorks/siros/backend/internal/config.DatabaseConfig).ConnectionString | defined in config.go:228">
<path fill="lightblue" stroke="black" stroke-width="1.5" d="M431.16,-148C431.16,-148 174.88,-148 174.88,-148 168.88,-148 162.87,-142 162.87,-136 162.87,-136 162.87,-124 162.87,-124 162.87,-118 168.87,-112 174.87,-112 174.87,-112 431.16,-112 431.16,-112 437.16,-112 443.16,-118 443.16,-124 443.16,-124 443.16,-136 443.16,-136 443.16,-142 437.16,-148 431.16,-148"/>
<text xml:space="preserve" text-anchor="middle" x="303.02" y="-125.33" font-family="Verdana" font-size="14.00">(*DatabaseConfig).ConnectionString</text>
</a>
</g>
</g>
<!-- github.com/LederWorks/siros/backend/cmd/siros&#45;server.run -->
<g id="node6" class="node">
<title>github.com/LederWorks/siros/backend/cmd/siros&#45;server.run</title>
<g id="a_node6"><a xlink:title="github.com/LederWorks/siros/backend/cmd/siros&#45;server.run | defined in main.go:47&#10;at main.go:55: calling [github.com/LederWorks/siros/backend/internal/config.Load]">
<path fill="moccasin" stroke="black" stroke-width="0.5" d="M66,-60C66,-60 36,-60 36,-60 30,-60 24,-54 24,-48 24,-48 24,-36 24,-36 24,-30 30,-24 36,-24 36,-24 66,-24 66,-24 72,-24 78,-30 78,-36 78,-36 78,-48 78,-48 78,-54 72,-60 66,-60"/>
<text xml:space="preserve" text-anchor="middle" x="51" y="-37.33" font-family="Verdana" font-size="14.00">run</text>
</a>
</g>
</g>
<!-- github.com/LederWorks/siros/backend/cmd/siros&#45;server.run&#45;&gt;github.com/LederWorks/siros/backend/internal/config.Load -->
<g id="edge1" class="edge">
<title>github.com/LederWorks/siros/backend/cmd/siros&#45;server.run&#45;&gt;github.com/LederWorks/siros/backend/internal/config.Load</title>
<g id="a_edge1"><a xlink:title="at main.go:55: calling [github.com/LederWorks/siros/backend/internal/config.Load]">
<path fill="none" stroke="saddlebrown" d="M77.81,-42C121.8,-42 211.51,-42 263.12,-42"/>
<polygon fill="saddlebrown" stroke="saddlebrown" points="262.94,-45.5 272.94,-42 262.94,-38.5 262.94,-45.5"/>
</a>
</g>
</g>
<!-- github.com/LederWorks/siros/backend/internal/storage.New -->
<g id="node7" class="node">
<title>github.com/LederWorks/siros/backend/internal/storage.New</title>
<g id="a_node7"><a xlink:title="github.com/LederWorks/siros/backend/internal/storage.New | defined in storage.go:24&#10;at storage.go:25: calling [(*github.com/LederWorks/siros/backend/internal/config.DatabaseConfig).ConnectionString]">
<path fill="moccasin" stroke="black" stroke-width="1.5" d="M66,-148C66,-148 36,-148 36,-148 30,-148 24,-142 24,-136 24,-136 24,-124 24,-124 24,-118 30,-112 36,-112 36,-112 66,-112 66,-112 72,-112 78,-118 78,-124 78,-124 78,-136 78,-136 78,-142 72,-148 66,-148"/>
<text xml:space="preserve" text-anchor="middle" x="51" y="-125.33" font-family="Verdana" font-size="14.00">New</text>
</a>
</g>
</g>
<!-- github.com/LederWorks/siros/backend/internal/storage.New&#45;&gt;(*github.com/LederWorks/siros/backend/internal/config.DatabaseConfig).ConnectionString -->
<g id="edge2" class="edge">
<title>github.com/LederWorks/siros/backend/internal/storage.New&#45;&gt;(*github.com/LederWorks/siros/backend/internal/config.DatabaseConfig).ConnectionString</title>
<g id="a_edge2"><a xlink:title="at storage.go:25: calling [(*github.com/LederWorks/siros/backend/internal/config.DatabaseConfig).ConnectionString]">
<path fill="none" stroke="saddlebrown" d="M78.28,-130C96.71,-130 123,-130 151.11,-130"/>
<polygon fill="saddlebrown" stroke="saddlebrown" points="150.88,-133.5 160.88,-130 150.88,-126.5 150.88,-133.5"/>
</a>
</g>
</g>
</g>
</svg>
