<?xml version="1.0" encoding="UTF-8" standalone="no"?>
<!DOCTYPE svg PUBLIC "-//W3C//DTD SVG 1.1//EN"
 "http://www.w3.org/Graphics/SVG/1.1/DTD/svg11.dtd">
<!-- Generated by graphviz version 14.0.1 (20251006.0113)
 -->
<!-- Title: gocallvis Pages: 1 -->
<svg width="692pt" height="475pt"
 viewBox="0.00 0.00 692.00 475.00" xmlns="http://www.w3.org/2000/svg" xmlns:xlink="http://www.w3.org/1999/xlink">
<g id="graph0" class="graph" transform="scale(1 1) rotate(0) translate(0 475)">
<title>gocallvis</title>
<polygon fill="lightgray" stroke="none" points="0,0 0,-475 692.12,-475 692.12,0 0,0"/>
<g id="clust1" class="cluster">
<title>cluster_focus</title>
<polygon fill="#e6ecfa" stroke="black" stroke-width="0.5" points="8,-8 8,-467 684.12,-467 684.12,-8 8,-8"/>
<text xml:space="preserve" text-anchor="middle" x="346.06" y="-445.9" font-family="Arial" font-size="18.00">main</text>
</g>
<g id="clust2" class="cluster">
<title>cluster_github.com/LederWorks/siros/backend/internal/api</title>
<g id="a_clust2"><a xlink:href="/?f=github.com/LederWorks/siros/backend/internal/api" xlink:title="package: github.com/LederWorks/siros/backend/internal/api">
<polygon fill="lightyellow" stroke="black" stroke-width="0.8" points="510.08,-240 510.08,-392 668.37,-392 668.37,-240 510.08,-240"/>
<text xml:space="preserve" text-anchor="middle" x="589.22" y="-372.8" font-family="Tahoma bold" font-size="16.00">api</text>
</a>
</g>
</g>
<g id="clust3" class="cluster">
<title>cluster_github.com/LederWorks/siros/backend/internal/config</title>
<g id="a_clust3"><a xlink:href="/?f=github.com/LederWorks/siros/backend/internal/config" xlink:title="package: github.com/LederWorks/siros/backend/internal/config">
<polygon fill="lightyellow" stroke="black" stroke-width="0.8" points="315.41,-262 315.41,-342 387.45,-342 387.45,-262 315.41,-262"/>
<text xml:space="preserve" text-anchor="middle" x="351.43" y="-322.8" font-family="Tahoma bold" font-size="16.00">config</text>
</a>
</g>
</g>
<g id="clust4" class="cluster">
<title>cluster_github.com/LederWorks/siros/backend/internal/storage</title>
<g id="a_clust4"><a xlink:href="/?f=github.com/LederWorks/siros/backend/internal/storage" xlink:title="package: github.com/LederWorks/siros/backend/internal/storage">
<polygon fill="lightyellow" stroke="black" stroke-width="0.8" points="313.56,-350 313.56,-430 390.31,-430 390.31,-350 313.56,-350"/>
<text xml:space="preserve" text-anchor="middle" x="351.93" y="-410.8" font-family="Tahoma bold" font-size="16.00">storage</text>
</a>
</g>
</g>
<g id="clust5" class="cluster">
<title>cluster_github.com/rs/cors</title>
<g id="a_clust5"><a xlink:href="/?f=github.com/rs/cors" xlink:title="package: github.com/rs/cors">
<polygon fill="lightyellow" stroke="black" stroke-width="0.8" points="513.45,-16 513.45,-168 664.99,-168 664.99,-16 513.45,-16"/>
<text xml:space="preserve" text-anchor="middle" x="589.22" y="-148.8" font-family="Tahoma bold" font-size="16.00">cors</text>
</a>
</g>
</g>
<!-- (*github.com/LederWorks/siros/backend/cmd/siros&#45;server.App).startServer -->
<g id="node1" class="node">
<title>(*github.com/LederWorks/siros/backend/cmd/siros&#45;server.App).startServer</title>
<g id="a_node1"><a xlink:title="(*github.com/LederWorks/siros/backend/cmd/siros&#45;server.App).startServer | defined in main.go:111&#10;at main.go:113: calling [github.com/rs/cors.New]&#10;at main.go:121: calling [(*github.com/LederWorks/siros/backend/internal/api.Server).Router]&#10;at main.go:137: calling [(*github.com/LederWorks/siros/backend/cmd/siros&#45;server.App).startServer$1]&#10;at main.go:121: calling [(*github.com/rs/cors.Cors).Handler]">
<path fill="lightblue" stroke="black" stroke-width="0.5" d="M417.33,-52C417.33,-52 285.54,-52 285.54,-52 279.54,-52 273.54,-46 273.54,-40 273.54,-40 273.54,-28 273.54,-28 273.54,-22 279.54,-16 285.54,-16 285.54,-16 417.33,-16 417.33,-16 423.33,-16 429.33,-22 429.33,-28 429.33,-28 429.33,-40 429.33,-40 429.33,-46 423.33,-52 417.33,-52"/>
<text xml:space="preserve" text-anchor="middle" x="351.43" y="-29.32" font-family="Verdana" font-size="14.00">(*App).startServer</text>
</a>
</g>
</g>
<!-- (*github.com/LederWorks/siros/backend/cmd/siros&#45;server.App).startServer$1 -->
<g id="node2" class="node">
<title>(*github.com/LederWorks/siros/backend/cmd/siros&#45;server.App).startServer$1</title>
<g id="a_node2"><a xlink:title="(*github.com/LederWorks/siros/backend/cmd/siros&#45;server.App).startServer$1 | defined in main.go:137">
<polygon fill="lightblue" stroke="black" stroke-dasharray="1,5" points="676.12,-212 502.33,-212 502.33,-176 676.12,-176 676.12,-212"/>
<text xml:space="preserve" text-anchor="middle" x="589.22" y="-189.32" font-family="Verdana" font-size="14.00">(*App).startServer$1</text>
</a>
</g>
</g>
<!-- (*github.com/LederWorks/siros/backend/cmd/siros&#45;server.App).startServer&#45;&gt;(*github.com/LederWorks/siros/backend/cmd/siros&#45;server.App).startServer$1 -->
<g id="edge3" class="edge">
<title>(*github.com/LederWorks/siros/backend/cmd/siros&#45;server.App).startServer&#45;&gt;(*github.com/LederWorks/siros/backend/cmd/siros&#45;server.App).startServer$1</title>
<g id="a_edge3"><a xlink:title="at main.go:137: calling [(*github.com/LederWorks/siros/backend/cmd/siros&#45;server.App).startServer$1]">
<path fill="none" stroke="black" d="M401.05,-52.14C410.98,-57.07 420.94,-63.03 429.33,-70 465.66,-100.22 459.8,-129.87 488.79,-159.63"/>
<polygon fill="black" stroke="black" points="497.14,-171.06 507.08,-174.72 501.59,-165.66 497.14,-171.06"/>
<polyline fill="none" stroke="black" points="498.98,-168.04 495.12,-164.86"/>
<ellipse fill="none" stroke="black" cx="491.65" cy="-161.99" rx="4" ry="4"/>
</a>
</g>
</g>
<!-- (*github.com/LederWorks/siros/backend/internal/api.Server).Router -->
<g id="node7" class="node">
<title>(*github.com/LederWorks/siros/backend/internal/api.Server).Router</title>
<g id="a_node7"><a xlink:title="(*github.com/LederWorks/siros/backend/internal/api.Server).Router | defined in server.go:53">
<path fill="moccasin" stroke="black" stroke-width="1.5" d="M648.37,-284C648.37,-284 530.08,-284 530.08,-284 524.08,-284 518.08,-278 518.08,-272 518.08,-272 518.08,-260 518.08,-260 518.08,-254 524.08,-248 530.08,-248 530.08,-248 648.37,-248 648.37,-248 654.37,-248 660.37,-254 660.37,-260 660.37,-260 660.37,-272 660.37,-272 660.37,-278 654.37,-284 648.37,-284"/>
<text xml:space="preserve" text-anchor="middle" x="589.22" y="-261.32" font-family="Verdana" font-size="14.00">(*Server).Router</text>
</a>
</g>
</g>
<!-- (*github.com/LederWorks/siros/backend/cmd/siros&#45;server.App).startServer&#45;&gt;(*github.com/LederWorks/siros/backend/internal/api.Server).Router -->
<g id="edge2" class="edge">
<title>(*github.com/LederWorks/siros/backend/cmd/siros&#45;server.App).startServer&#45;&gt;(*github.com/LederWorks/siros/backend/internal/api.Server).Router</title>
<g id="a_edge2"><a xlink:title="at main.go:121: calling [(*github.com/LederWorks/siros/backend/internal/api.Server).Router]">
<path fill="none" stroke="saddlebrown" d="M405.1,-52.24C413.96,-57.02 422.49,-62.88 429.33,-70 487.41,-130.49 438.85,-189.2 502.33,-244 504.03,-245.47 505.82,-246.85 507.68,-248.13"/>
<polygon fill="saddlebrown" stroke="saddlebrown" points="505.79,-251.08 516.19,-253.07 509.3,-245.02 505.79,-251.08"/>
</a>
</g>
</g>
<!-- github.com/rs/cors.New -->
<g id="node11" class="node">
<title>github.com/rs/cors.New</title>
<g id="a_node11"><a xlink:title="github.com/rs/cors.New | defined in cors.go:132">
<path fill="moccasin" stroke="black" stroke-width="1.5" d="M604.22,-60C604.22,-60 574.22,-60 574.22,-60 568.22,-60 562.22,-54 562.22,-48 562.22,-48 562.22,-36 562.22,-36 562.22,-30 568.22,-24 574.22,-24 574.22,-24 604.22,-24 604.22,-24 610.22,-24 616.22,-30 616.22,-36 616.22,-36 616.22,-48 616.22,-48 616.22,-54 610.22,-60 604.22,-60"/>
<text xml:space="preserve" text-anchor="middle" x="589.22" y="-37.33" font-family="Verdana" font-size="14.00">New</text>
</a>
</g>
</g>
<!-- (*github.com/LederWorks/siros/backend/cmd/siros&#45;server.App).startServer&#45;&gt;github.com/rs/cors.New -->
<g id="edge1" class="edge">
<title>(*github.com/LederWorks/siros/backend/cmd/siros&#45;server.App).startServer&#45;&gt;github.com/rs/cors.New</title>
<g id="a_edge1"><a xlink:title="at main.go:113: calling [github.com/rs/cors.New]">
<path fill="none" stroke="saddlebrown" d="M429.32,-36.61C469.89,-37.99 517.87,-39.61 550.41,-40.72"/>
<polygon fill="saddlebrown" stroke="saddlebrown" points="550.04,-44.21 560.15,-41.05 550.27,-37.21 550.04,-44.21"/>
</a>
</g>
</g>
<!-- (*github.com/rs/cors.Cors).Handler -->
<g id="node12" class="node">
<title>(*github.com/rs/cors.Cors).Handler</title>
<g id="a_node12"><a xlink:title="(*github.com/rs/cors.Cors).Handler | defined in cors.go:264">
<path fill="moccasin" stroke="black" stroke-width="1.5" d="M644.99,-132C644.99,-132 533.45,-132 533.45,-132 527.45,-132 521.45,-126 521.45,-120 521.45,-120 521.45,-108 521.45,-108 521.45,-102 527.45,-96 533.45,-96 533.45,-96 644.99,-96 644.99,-96 650.99,-96 656.99,-102 656.99,-108 656.99,-108 656.99,-120 656.99,-120 656.99,-126 650.99,-132 644.99,-132"/>
<text xml:space="preserve" text-anchor="middle" x="589.22" y="-109.33" font-family="Verdana" font-size="14.00">(*Cors).Handler</text>
</a>
</g>
</g>
<!-- (*github.com/LederWorks/siros/backend/cmd/siros&#45;server.App).startServer&#45;&gt;(*github.com/rs/cors.Cors).Handler -->
<g id="edge8" class="edge">
<title>(*github.com/LederWorks/siros/backend/cmd/siros&#45;server.App).startServer&#45;&gt;(*github.com/rs/cors.Cors).Handler</title>
<g id="a_edge8"><a xlink:title="at main.go:121: calling [(*github.com/rs/cors.Cors).Handler]">
<path fill="none" stroke="saddlebrown" d="M405.94,-52.15C440.57,-63.9 485.88,-79.28 522.67,-91.76"/>
<polygon fill="saddlebrown" stroke="saddlebrown" points="521.27,-94.98 531.86,-94.88 523.52,-88.35 521.27,-94.98"/>
</a>
</g>
</g>
<!-- github.com/LederWorks/siros/backend/cmd/siros&#45;server.run -->
<g id="node3" class="node">
<title>github.com/LederWorks/siros/backend/cmd/siros&#45;server.run</title>
<g id="a_node3"><a xlink:title="github.com/LederWorks/siros/backend/cmd/siros&#45;server.run | defined in main.go:47&#10;at main.go:55: calling [github.com/LederWorks/siros/backend/internal/config.Load]&#10;at main.go:61: calling [github.com/LederWorks/siros/backend/cmd/siros&#45;server.connectDB]&#10;at main.go:78: calling [github.com/LederWorks/siros/backend/internal/api.NewServer]&#10;at main.go:89: calling [(*github.com/LederWorks/siros/backend/cmd/siros&#45;server.App).startServer]&#10;at main.go:65: calling [github.com/LederWorks/siros/backend/cmd/siros&#45;server.run$1]&#10;at main.go:72: calling [github.com/LederWorks/siros/backend/internal/storage.New]">
<path fill="lightblue" stroke="black" stroke-width="0.5" d="M188.54,-227C188.54,-227 158.54,-227 158.54,-227 152.54,-227 146.54,-221 146.54,-215 146.54,-215 146.54,-203 146.54,-203 146.54,-197 152.54,-191 158.54,-191 158.54,-191 188.54,-191 188.54,-191 194.54,-191 200.54,-197 200.54,-203 200.54,-203 200.54,-215 200.54,-215 200.54,-221 194.54,-227 188.54,-227"/>
<text xml:space="preserve" text-anchor="middle" x="173.54" y="-204.32" font-family="Verdana" font-size="14.00">run</text>
</a>
</g>
</g>
<!-- github.com/LederWorks/siros/backend/cmd/siros&#45;server.run&#45;&gt;(*github.com/LederWorks/siros/backend/cmd/siros&#45;server.App).startServer -->
<g id="edge7" class="edge">
<title>github.com/LederWorks/siros/backend/cmd/siros&#45;server.run&#45;&gt;(*github.com/LederWorks/siros/backend/cmd/siros&#45;server.App).startServer</title>
<g id="a_edge7"><a xlink:title="at main.go:89: calling [(*github.com/LederWorks/siros/backend/cmd/siros&#45;server.App).startServer]">
<path fill="none" stroke="black" d="M183.45,-190.95C198.49,-162.06 231.44,-105.09 273.54,-70 279.17,-65.31 285.51,-61.08 292.08,-57.31"/>
<polygon fill="black" stroke="black" points="293.29,-60.63 300.47,-52.84 290,-54.46 293.29,-60.63"/>
</a>
</g>
</g>
<!-- github.com/LederWorks/siros/backend/cmd/siros&#45;server.connectDB -->
<g id="node4" class="node">
<title>github.com/LederWorks/siros/backend/cmd/siros&#45;server.connectDB</title>
<g id="a_node4"><a xlink:title="github.com/LederWorks/siros/backend/cmd/siros&#45;server.connectDB | defined in main.go:92">
<path fill="lightblue" stroke="black" stroke-width="0.5" d="M388.45,-124C388.45,-124 314.41,-124 314.41,-124 308.41,-124 302.41,-118 302.41,-112 302.41,-112 302.41,-100 302.41,-100 302.41,-94 308.41,-88 314.41,-88 314.41,-88 388.45,-88 388.45,-88 394.45,-88 400.45,-94 400.45,-100 400.45,-100 400.45,-112 400.45,-112 400.45,-118 394.45,-124 388.45,-124"/>
<text xml:space="preserve" text-anchor="middle" x="351.43" y="-101.33" font-family="Verdana" font-size="14.00">connectDB</text>
</a>
</g>
</g>
<!-- github.com/LederWorks/siros/backend/cmd/siros&#45;server.run&#45;&gt;github.com/LederWorks/siros/backend/cmd/siros&#45;server.connectDB -->
<g id="edge5" class="edge">
<title>github.com/LederWorks/siros/backend/cmd/siros&#45;server.run&#45;&gt;github.com/LederWorks/siros/backend/cmd/siros&#45;server.connectDB</title>
<g id="a_edge5"><a xlink:title="at main.go:61: calling [github.com/LederWorks/siros/backend/cmd/siros&#45;server.connectDB]">
<path fill="none" stroke="black" d="M199.07,-190.81C218.7,-176.65 247.19,-156.96 273.54,-142 281.47,-137.5 290.05,-133.07 298.52,-128.94"/>
<polygon fill="black" stroke="black" points="299.84,-132.19 307.36,-124.73 296.83,-125.87 299.84,-132.19"/>
</a>
</g>
</g>
<!-- github.com/LederWorks/siros/backend/cmd/siros&#45;server.run$1 -->
<g id="node5" class="node">
<title>github.com/LederWorks/siros/backend/cmd/siros&#45;server.run$1</title>
<g id="a_node5"><a xlink:title="github.com/LederWorks/siros/backend/cmd/siros&#45;server.run$1 | defined in main.go:65">
<polygon fill="lightblue" stroke="black" stroke-dasharray="1,5" points="383.95,-196 318.91,-196 318.91,-160 383.95,-160 383.95,-196"/>
<text xml:space="preserve" text-anchor="middle" x="351.43" y="-173.32" font-family="Verdana" font-size="14.00">run$1</text>
</a>
</g>
</g>
<!-- github.com/LederWorks/siros/backend/cmd/siros&#45;server.run&#45;&gt;github.com/LederWorks/siros/backend/cmd/siros&#45;server.run$1 -->
<g id="edge9" class="edge">
<title>github.com/LederWorks/siros/backend/cmd/siros&#45;server.run&#45;&gt;github.com/LederWorks/siros/backend/cmd/siros&#45;server.run$1</title>
<g id="a_edge9"><a xlink:title="at main.go:65: calling [github.com/LederWorks/siros/backend/cmd/siros&#45;server.run$1]">
<path fill="none" stroke="black" d="M200.49,-204.43C223.95,-200.29 259.38,-194.05 289.91,-188.67"/>
<polygon fill="black" stroke="black" points="307.98,-189.04 317.22,-183.85 306.77,-182.14 307.98,-189.04"/>
<polyline fill="none" stroke="black" points="306.88,-185.68 301.96,-186.54"/>
<polygon fill="none" stroke="black" points="289.25,-188.78 294.47,-183.8 301.07,-186.7 295.85,-191.68 289.25,-188.78"/>
</a>
</g>
</g>
<!-- github.com/LederWorks/siros/backend/internal/api.NewServer -->
<g id="node8" class="node">
<title>github.com/LederWorks/siros/backend/internal/api.NewServer</title>
<g id="a_node8"><a xlink:title="github.com/LederWorks/siros/backend/internal/api.NewServer | defined in server.go:31">
<path fill="moccasin" stroke="black" stroke-width="1.5" d="M626.99,-356C626.99,-356 551.45,-356 551.45,-356 545.45,-356 539.45,-350 539.45,-344 539.45,-344 539.45,-332 539.45,-332 539.45,-326 545.45,-320 551.45,-320 551.45,-320 626.99,-320 626.99,-320 632.99,-320 638.99,-326 638.99,-332 638.99,-332 638.99,-344 638.99,-344 638.99,-350 632.99,-356 626.99,-356"/>
<text xml:space="preserve" text-anchor="middle" x="589.22" y="-333.32" font-family="Verdana" font-size="14.00">NewServer</text>
</a>
</g>
</g>
<!-- github.com/LederWorks/siros/backend/cmd/siros&#45;server.run&#45;&gt;github.com/LederWorks/siros/backend/internal/api.NewServer -->
<g id="edge6" class="edge">
<title>github.com/LederWorks/siros/backend/cmd/siros&#45;server.run&#45;&gt;github.com/LederWorks/siros/backend/internal/api.NewServer</title>
<g id="a_edge6"><a xlink:title="at main.go:78: calling [github.com/LederWorks/siros/backend/internal/api.NewServer]">
<path fill="none" stroke="saddlebrown" d="M200.45,-209.92C247.62,-212.36 349.95,-221.2 429.33,-253 465.6,-267.53 467.93,-283.47 502.33,-302 510.72,-306.52 519.8,-310.86 528.81,-314.88"/>
<polygon fill="saddlebrown" stroke="saddlebrown" points="527.35,-318.06 537.91,-318.83 530.13,-311.64 527.35,-318.06"/>
</a>
</g>
</g>
<!-- github.com/LederWorks/siros/backend/internal/config.Load -->
<g id="node9" class="node">
<title>github.com/LederWorks/siros/backend/internal/config.Load</title>
<g id="a_node9"><a xlink:title="github.com/LederWorks/siros/backend/internal/config.Load | defined in config.go:110">
<path fill="moccasin" stroke="black" stroke-width="1.5" d="M367.45,-306C367.45,-306 335.41,-306 335.41,-306 329.41,-306 323.41,-300 323.41,-294 323.41,-294 323.41,-282 323.41,-282 323.41,-276 329.41,-270 335.41,-270 335.41,-270 367.45,-270 367.45,-270 373.45,-270 379.45,-276 379.45,-282 379.45,-282 379.45,-294 379.45,-294 379.45,-300 373.45,-306 367.45,-306"/>
<text xml:space="preserve" text-anchor="middle" x="351.43" y="-283.32" font-family="Verdana" font-size="14.00">Load</text>
</a>
</g>
</g>
<!-- github.com/LederWorks/siros/backend/cmd/siros&#45;server.run&#45;&gt;github.com/LederWorks/siros/backend/internal/config.Load -->
<g id="edge4" class="edge">
<title>github.com/LederWorks/siros/backend/cmd/siros&#45;server.run&#45;&gt;github.com/LederWorks/siros/backend/internal/config.Load</title>
<g id="a_edge4"><a xlink:title="at main.go:55: calling [github.com/LederWorks/siros/backend/internal/config.Load]">
<path fill="none" stroke="saddlebrown" d="M200.52,-226.31C219.98,-238.68 247.61,-255.02 273.54,-266 285.68,-271.14 299.39,-275.49 311.84,-278.94"/>
<polygon fill="saddlebrown" stroke="saddlebrown" points="310.81,-282.28 321.37,-281.45 312.59,-275.52 310.81,-282.28"/>
</a>
</g>
</g>
<!-- github.com/LederWorks/siros/backend/internal/storage.New -->
<g id="node10" class="node">
<title>github.com/LederWorks/siros/backend/internal/storage.New</title>
<g id="a_node10"><a xlink:title="github.com/LederWorks/siros/backend/internal/storage.New | defined in storage.go:24">
<path fill="moccasin" stroke="black" stroke-width="1.5" d="M366.43,-394C366.43,-394 336.43,-394 336.43,-394 330.43,-394 324.43,-388 324.43,-382 324.43,-382 324.43,-370 324.43,-370 324.43,-364 330.43,-358 336.43,-358 336.43,-358 366.43,-358 366.43,-358 372.43,-358 378.43,-364 378.43,-370 378.43,-370 378.43,-382 378.43,-382 378.43,-388 372.43,-394 366.43,-394"/>
<text xml:space="preserve" text-anchor="middle" x="351.43" y="-371.32" font-family="Verdana" font-size="14.00">New</text>
</a>
</g>
</g>
<!-- github.com/LederWorks/siros/backend/cmd/siros&#45;server.run&#45;&gt;github.com/LederWorks/siros/backend/internal/storage.New -->
<g id="edge10" class="edge">
<title>github.com/LederWorks/siros/backend/cmd/siros&#45;server.run&#45;&gt;github.com/LederWorks/siros/backend/internal/storage.New</title>
<g id="a_edge10"><a xlink:title="at main.go:72: calling [github.com/LederWorks/siros/backend/internal/storage.New]">
<path fill="none" stroke="saddlebrown" d="M182.4,-227.09C196.38,-257.18 228.4,-317.52 273.54,-351 285.08,-359.56 299.68,-365.27 313.05,-369.04"/>
<polygon fill="saddlebrown" stroke="saddlebrown" points="311.88,-372.36 322.44,-371.41 313.59,-365.57 311.88,-372.36"/>
</a>
</g>
</g>
<!-- github.com/LederWorks/siros/backend/cmd/siros&#45;server.main -->
<g id="node6" class="node">
<title>github.com/LederWorks/siros/backend/cmd/siros&#45;server.main</title>
<g id="a_node6"><a xlink:title="github.com/LederWorks/siros/backend/cmd/siros&#45;server.main | defined in main.go:41&#10;at main.go:42: calling [github.com/LederWorks/siros/backend/cmd/siros&#45;server.run]">
<path fill="lightblue" stroke="black" stroke-width="0.5" d="M61.54,-227C61.54,-227 28,-227 28,-227 22,-227 16,-221 16,-215 16,-215 16,-203 16,-203 16,-197 22,-191 28,-191 28,-191 61.54,-191 61.54,-191 67.54,-191 73.54,-197 73.54,-203 73.54,-203 73.54,-215 73.54,-215 73.54,-221 67.54,-227 61.54,-227"/>
<text xml:space="preserve" text-anchor="middle" x="44.77" y="-204.32" font-family="Verdana" font-size="14.00">main</text>
</a>
</g>
</g>
<!-- github.com/LederWorks/siros/backend/cmd/siros&#45;server.main&#45;&gt;github.com/LederWorks/siros/backend/cmd/siros&#45;server.run -->
<g id="edge11" class="edge">
<title>github.com/LederWorks/siros/backend/cmd/siros&#45;server.main&#45;&gt;github.com/LederWorks/siros/backend/cmd/siros&#45;server.run</title>
<g id="a_edge11"><a xlink:title="at main.go:42: calling [github.com/LederWorks/siros/backend/cmd/siros&#45;server.run]">
<path fill="none" stroke="black" d="M73.59,-209C91.66,-209 115.44,-209 135.15,-209"/>
<polygon fill="black" stroke="black" points="135,-212.5 145,-209 135,-205.5 135,-212.5"/>
</a>
</g>
</g>
</g>
</svg>
