<?xml version="1.0" encoding="UTF-8" standalone="no"?>
<!DOCTYPE svg PUBLIC "-//W3C//DTD SVG 1.1//EN"
 "http://www.w3.org/Graphics/SVG/1.1/DTD/svg11.dtd">
<!-- Generated by graphviz version 14.0.1 (20251006.0113)
 -->
<!-- Title: gocallvis Pages: 1 -->
<svg width="746pt" height="329pt"
 viewBox="0.00 0.00 746.00 329.00" xmlns="http://www.w3.org/2000/svg" xmlns:xlink="http://www.w3.org/1999/xlink">
<g id="graph0" class="graph" transform="scale(1 1) rotate(0) translate(0 329)">
<title>gocallvis</title>
<polygon fill="lightgray" stroke="none" points="0,0 0,-329 746.37,-329 746.37,0 0,0"/>
<g id="clust1" class="cluster">
<title>cluster_focus</title>
<polygon fill="#e6ecfa" stroke="black" stroke-width="0.5" points="8,-8 8,-321 738.37,-321 738.37,-8 8,-8"/>
<text xml:space="preserve" text-anchor="middle" x="373.18" y="-299.9" font-family="Arial" font-size="18.00">storage</text>
</g>
<g id="clust2" class="cluster">
<title>cluster_github.com/LederWorks/siros/backend/cmd/siros&#45;server</title>
<g id="a_clust2"><a xlink:href="/?f=github.com/LederWorks/siros/backend/cmd/siros-server" xlink:title="package: github.com/LederWorks/siros/backend/cmd/siros&#45;server">
<polygon fill="lightyellow" stroke="black" stroke-width="0.8" points="90.39,-16 90.39,-96 160.39,-96 160.39,-16 90.39,-16"/>
<text xml:space="preserve" text-anchor="middle" x="125.39" y="-76.8" font-family="Tahoma bold" font-size="16.00">main</text>
</a>
</g>
</g>
<g id="clust3" class="cluster">
<title>cluster_github.com/LederWorks/siros/backend/internal/config</title>
<g id="a_clust3"><a xlink:href="/?f=github.com/LederWorks/siros/backend/internal/config" xlink:title="package: github.com/LederWorks/siros/backend/internal/config">
<polygon fill="lightyellow" stroke="black" stroke-width="0.8" points="434.08,-84 434.08,-164 730.37,-164 730.37,-84 434.08,-84"/>
<text xml:space="preserve" text-anchor="middle" x="582.22" y="-144.8" font-family="Tahoma bold" font-size="16.00">config</text>
</a>
</g>
</g>
<g id="clust4" class="cluster">
<title>cluster_github.com/lib/pq</title>
<g id="a_clust4"><a xlink:href="/?f=github.com/lib/pq" xlink:title="package: github.com/lib/pq">
<polygon fill="lightyellow" stroke="black" stroke-width="0.8" points="299.79,-168 299.79,-248 377.08,-248 377.08,-168 299.79,-168"/>
<text xml:space="preserve" text-anchor="middle" x="338.43" y="-228.8" font-family="Tahoma bold" font-size="16.00">pq</text>
</a>
</g>
</g>
<!-- github.com/LederWorks/siros/backend/internal/storage.New -->
<g id="node1" class="node">
<title>github.com/LederWorks/siros/backend/internal/storage.New</title>
<g id="a_node1"><a xlink:title="github.com/LederWorks/siros/backend/internal/storage.New | defined in storage.go:24&#10;at storage.go:25: calling [(*github.com/LederWorks/siros/backend/internal/config.DatabaseConfig).ConnectionString]&#10;at storage.go:46: calling [(*github.com/LederWorks/siros/backend/internal/storage.Storage).migrate]">
<path fill="lightblue" stroke="black" stroke-width="1.5" d="M353.43,-60C353.43,-60 323.43,-60 323.43,-60 317.43,-60 311.43,-54 311.43,-48 311.43,-48 311.43,-36 311.43,-36 311.43,-30 317.43,-24 323.43,-24 323.43,-24 353.43,-24 353.43,-24 359.43,-24 365.43,-30 365.43,-36 365.43,-36 365.43,-48 365.43,-48 365.43,-54 359.43,-60 353.43,-60"/>
<text xml:space="preserve" text-anchor="middle" x="338.43" y="-37.33" font-family="Verdana" font-size="14.00">New</text>
</a>
</g>
</g>
<!-- (*github.com/LederWorks/siros/backend/internal/storage.Storage).migrate -->
<g id="node2" class="node">
<title>(*github.com/LederWorks/siros/backend/internal/storage.Storage).migrate</title>
<g id="a_node2"><a xlink:title="(*github.com/LederWorks/siros/backend/internal/storage.Storage).migrate | defined in storage.go:59">
<path fill="lightblue" stroke="black" stroke-width="0.5" d="M649.24,-56C649.24,-56 515.2,-56 515.2,-56 509.2,-56 503.2,-50 503.2,-44 503.2,-44 503.2,-32 503.2,-32 503.2,-26 509.2,-20 515.2,-20 515.2,-20 649.24,-20 649.24,-20 655.24,-20 661.24,-26 661.24,-32 661.24,-32 661.24,-44 661.24,-44 661.24,-50 655.24,-56 649.24,-56"/>
<text xml:space="preserve" text-anchor="middle" x="582.22" y="-33.33" font-family="Verdana" font-size="14.00">(*Storage).migrate</text>
</a>
</g>
</g>
<!-- github.com/LederWorks/siros/backend/internal/storage.New&#45;&gt;(*github.com/LederWorks/siros/backend/internal/storage.Storage).migrate -->
<g id="edge2" class="edge">
<title>github.com/LederWorks/siros/backend/internal/storage.New&#45;&gt;(*github.com/LederWorks/siros/backend/internal/storage.Storage).migrate</title>
<g id="a_edge2"><a xlink:title="at storage.go:46: calling [(*github.com/LederWorks/siros/backend/internal/storage.Storage).migrate]">
<path fill="none" stroke="black" d="M365.77,-41.56C395.95,-41.06 447.04,-40.22 491.9,-39.48"/>
<polygon fill="black" stroke="black" points="491.7,-42.98 501.64,-39.32 491.58,-35.98 491.7,-42.98"/>
</a>
</g>
</g>
<!-- (*github.com/LederWorks/siros/backend/internal/config.DatabaseConfig).ConnectionString -->
<g id="node7" class="node">
<title>(*github.com/LederWorks/siros/backend/internal/config.DatabaseConfig).ConnectionString</title>
<g id="a_node7"><a xlink:title="(*github.com/LederWorks/siros/backend/internal/config.DatabaseConfig).ConnectionString | defined in config.go:163">
<path fill="moccasin" stroke="black" stroke-width="1.5" d="M710.37,-128C710.37,-128 454.08,-128 454.08,-128 448.08,-128 442.08,-122 442.08,-116 442.08,-116 442.08,-104 442.08,-104 442.08,-98 448.08,-92 454.08,-92 454.08,-92 710.37,-92 710.37,-92 716.37,-92 722.37,-98 722.37,-104 722.37,-104 722.37,-116 722.37,-116 722.37,-122 716.37,-128 710.37,-128"/>
<text xml:space="preserve" text-anchor="middle" x="582.22" y="-105.33" font-family="Verdana" font-size="14.00">(*DatabaseConfig).ConnectionString</text>
</a>
</g>
</g>
<!-- github.com/LederWorks/siros/backend/internal/storage.New&#45;&gt;(*github.com/LederWorks/siros/backend/internal/config.DatabaseConfig).ConnectionString -->
<g id="edge1" class="edge">
<title>github.com/LederWorks/siros/backend/internal/storage.New&#45;&gt;(*github.com/LederWorks/siros/backend/internal/config.DatabaseConfig).ConnectionString</title>
<g id="a_edge1"><a xlink:title="at storage.go:25: calling [(*github.com/LederWorks/siros/backend/internal/config.DatabaseConfig).ConnectionString]">
<path fill="none" stroke="saddlebrown" d="M365.87,-57.55C384.38,-67.76 410,-80.54 434.08,-88 434.2,-88.04 434.31,-88.07 434.43,-88.11"/>
<polygon fill="saddlebrown" stroke="saddlebrown" points="433.34,-91.44 443.92,-90.85 435.28,-84.71 433.34,-91.44"/>
</a>
</g>
</g>
<!-- (*github.com/LederWorks/siros/backend/internal/storage.Storage).VectorSearch -->
<g id="node3" class="node">
<title>(*github.com/LederWorks/siros/backend/internal/storage.Storage).VectorSearch</title>
<g id="a_node3"><a xlink:title="(*github.com/LederWorks/siros/backend/internal/storage.Storage).VectorSearch | defined in storage.go:325&#10;at storage.go:335: calling [github.com/lib/pq.Array]">
<path fill="lightblue" stroke="black" stroke-width="1.5" d="M211.91,-140C211.91,-140 38.88,-140 38.88,-140 32.88,-140 26.87,-134 26.87,-128 26.87,-128 26.87,-116 26.87,-116 26.87,-110 32.87,-104 38.87,-104 38.87,-104 211.91,-104 211.91,-104 217.91,-104 223.91,-110 223.91,-116 223.91,-116 223.91,-128 223.91,-128 223.91,-134 217.91,-140 211.91,-140"/>
<text xml:space="preserve" text-anchor="middle" x="125.39" y="-117.33" font-family="Verdana" font-size="14.00">(*Storage).VectorSearch</text>
</a>
</g>
</g>
<!-- github.com/lib/pq.Array -->
<g id="node8" class="node">
<title>github.com/lib/pq.Array</title>
<g id="a_node8"><a xlink:title="github.com/lib/pq.Array | defined in array.go:29">
<path fill="moccasin" stroke="black" stroke-width="1.5" d="M357.08,-212C357.08,-212 319.79,-212 319.79,-212 313.79,-212 307.79,-206 307.79,-200 307.79,-200 307.79,-188 307.79,-188 307.79,-182 313.79,-176 319.79,-176 319.79,-176 357.08,-176 357.08,-176 363.08,-176 369.08,-182 369.08,-188 369.08,-188 369.08,-200 369.08,-200 369.08,-206 363.08,-212 357.08,-212"/>
<text xml:space="preserve" text-anchor="middle" x="338.43" y="-189.32" font-family="Verdana" font-size="14.00">Array</text>
</a>
</g>
</g>
<!-- (*github.com/LederWorks/siros/backend/internal/storage.Storage).VectorSearch&#45;&gt;github.com/lib/pq.Array -->
<g id="edge4" class="edge">
<title>(*github.com/LederWorks/siros/backend/internal/storage.Storage).VectorSearch&#45;&gt;github.com/lib/pq.Array</title>
<g id="a_edge4"><a xlink:title="at storage.go:335: calling [github.com/lib/pq.Array]">
<path fill="none" stroke="saddlebrown" d="M183.27,-140.69C199.9,-146.21 218.09,-152.3 234.79,-158 255.26,-164.99 277.95,-172.93 296.79,-179.57"/>
<polygon fill="saddlebrown" stroke="saddlebrown" points="295.37,-182.78 305.96,-182.81 297.7,-176.18 295.37,-182.78"/>
</a>
</g>
</g>
<!-- (*github.com/LederWorks/siros/backend/internal/storage.Storage).CreateResource -->
<g id="node4" class="node">
<title>(*github.com/LederWorks/siros/backend/internal/storage.Storage).CreateResource</title>
<g id="a_node4"><a xlink:title="(*github.com/LederWorks/siros/backend/internal/storage.Storage).CreateResource | defined in storage.go:133&#10;at storage.go:155: calling [github.com/lib/pq.Array]&#10;at storage.go:155: calling [github.com/lib/pq.Array]">
<path fill="lightblue" stroke="black" stroke-width="1.5" d="M220.54,-212C220.54,-212 30.25,-212 30.25,-212 24.25,-212 18.25,-206 18.25,-200 18.25,-200 18.25,-188 18.25,-188 18.25,-182 24.25,-176 30.25,-176 30.25,-176 220.54,-176 220.54,-176 226.54,-176 232.54,-182 232.54,-188 232.54,-188 232.54,-200 232.54,-200 232.54,-206 226.54,-212 220.54,-212"/>
<text xml:space="preserve" text-anchor="middle" x="125.39" y="-189.32" font-family="Verdana" font-size="14.00">(*Storage).CreateResource</text>
</a>
</g>
</g>
<!-- (*github.com/LederWorks/siros/backend/internal/storage.Storage).CreateResource&#45;&gt;github.com/lib/pq.Array -->
<g id="edge5" class="edge">
<title>(*github.com/LederWorks/siros/backend/internal/storage.Storage).CreateResource&#45;&gt;github.com/lib/pq.Array</title>
<g id="a_edge5"><a xlink:title="at storage.go:155: calling [github.com/lib/pq.Array]&#10;at storage.go:155: calling [github.com/lib/pq.Array]">
<path fill="none" stroke="saddlebrown" d="M233.15,-194C255.46,-194 277.69,-194 295.87,-194"/>
<polygon fill="saddlebrown" stroke="saddlebrown" points="295.67,-197.5 305.67,-194 295.67,-190.5 295.67,-197.5"/>
</a>
</g>
</g>
<!-- (*github.com/LederWorks/siros/backend/internal/storage.Storage).UpdateResource -->
<g id="node5" class="node">
<title>(*github.com/LederWorks/siros/backend/internal/storage.Storage).UpdateResource</title>
<g id="a_node5"><a xlink:title="(*github.com/LederWorks/siros/backend/internal/storage.Storage).UpdateResource | defined in storage.go:209&#10;at storage.go:234: calling [github.com/lib/pq.Array]&#10;at storage.go:234: calling [github.com/lib/pq.Array]">
<path fill="lightblue" stroke="black" stroke-width="1.5" d="M222.79,-284C222.79,-284 28,-284 28,-284 22,-284 16,-278 16,-272 16,-272 16,-260 16,-260 16,-254 22,-248 28,-248 28,-248 222.79,-248 222.79,-248 228.79,-248 234.79,-254 234.79,-260 234.79,-260 234.79,-272 234.79,-272 234.79,-278 228.79,-284 222.79,-284"/>
<text xml:space="preserve" text-anchor="middle" x="125.39" y="-261.32" font-family="Verdana" font-size="14.00">(*Storage).UpdateResource</text>
</a>
</g>
</g>
<!-- (*github.com/LederWorks/siros/backend/internal/storage.Storage).UpdateResource&#45;&gt;github.com/lib/pq.Array -->
<g id="edge6" class="edge">
<title>(*github.com/LederWorks/siros/backend/internal/storage.Storage).UpdateResource&#45;&gt;github.com/lib/pq.Array</title>
<g id="a_edge6"><a xlink:title="at storage.go:234: calling [github.com/lib/pq.Array]&#10;at storage.go:234: calling [github.com/lib/pq.Array]">
<path fill="none" stroke="saddlebrown" d="M183.27,-247.31C199.9,-241.79 218.09,-235.7 234.79,-230 255.26,-223.01 277.95,-215.07 296.79,-208.43"/>
<polygon fill="saddlebrown" stroke="saddlebrown" points="297.7,-211.82 305.96,-205.19 295.37,-205.22 297.7,-211.82"/>
</a>
</g>
</g>
<!-- github.com/LederWorks/siros/backend/cmd/siros&#45;server.run -->
<g id="node6" class="node">
<title>github.com/LederWorks/siros/backend/cmd/siros&#45;server.run</title>
<g id="a_node6"><a xlink:title="github.com/LederWorks/siros/backend/cmd/siros&#45;server.run | defined in main.go:47&#10;at main.go:72: calling [github.com/LederWorks/siros/backend/internal/storage.New]">
<path fill="moccasin" stroke="black" stroke-width="0.5" d="M140.39,-60C140.39,-60 110.39,-60 110.39,-60 104.39,-60 98.39,-54 98.39,-48 98.39,-48 98.39,-36 98.39,-36 98.39,-30 104.39,-24 110.39,-24 110.39,-24 140.39,-24 140.39,-24 146.39,-24 152.39,-30 152.39,-36 152.39,-36 152.39,-48 152.39,-48 152.39,-54 146.39,-60 140.39,-60"/>
<text xml:space="preserve" text-anchor="middle" x="125.39" y="-37.33" font-family="Verdana" font-size="14.00">run</text>
</a>
</g>
</g>
<!-- github.com/LederWorks/siros/backend/cmd/siros&#45;server.run&#45;&gt;github.com/LederWorks/siros/backend/internal/storage.New -->
<g id="edge3" class="edge">
<title>github.com/LederWorks/siros/backend/cmd/siros&#45;server.run&#45;&gt;github.com/LederWorks/siros/backend/internal/storage.New</title>
<g id="a_edge3"><a xlink:title="at main.go:72: calling [github.com/LederWorks/siros/backend/internal/storage.New]">
<path fill="none" stroke="saddlebrown" d="M152.27,-42C189.2,-42 257.22,-42 299.74,-42"/>
<polygon fill="saddlebrown" stroke="saddlebrown" points="299.5,-45.5 309.5,-42 299.5,-38.5 299.5,-45.5"/>
</a>
</g>
</g>
</g>
</svg>
